<svg width="733" height="729" viewBox="0 0 733 729" fill="none" xmlns="http://www.w3.org/2000/svg">
<path d="M321.002 365.171L82.1099 365.171L82.1099 1.08353L321.002 1.08353L321.002 365.171Z" fill="#EBEBEB"/>
<path d="M196.03 177.593H95.1019L95.1019 15.6394H196.03V177.593Z" fill="white"/>
<path d="M308.01 177.593H207.082L207.082 15.6394H308.01V177.593Z" fill="white"/>
<path d="M196.03 350.615H95.1019L95.1019 188.662H196.03V350.615Z" fill="white"/>
<path d="M308.01 350.615H207.082L207.082 188.662H308.01V350.615Z" fill="white"/>
<path d="M228.712 1H320.863V521.953H267.503L304.715 256.826L228.712 1Z" fill="#DBDBDB"/>
<path d="M244.684 15.0371L259.253 75.5722L274.173 136.107L304.013 257.177V256.826L290.146 383.161L283.3 446.503L276.63 509.67L284.178 446.503L291.375 383.336L305.592 257.002V256.826V256.651L275.402 135.932L260.131 75.3967L244.684 15.0371Z" fill="#EBEBEB"/>
<path d="M315.422 25.7404L315.071 78.0286L314.72 130.317L314.544 234.718L314.72 339.294L315.071 391.583L315.422 443.695L315.773 391.583L316.124 339.294L316.299 234.718L316.124 130.317L315.773 78.0286L315.422 25.7404Z" fill="#EBEBEB"/>
<path d="M298.22 35.5664L301.029 91.1885L304.188 146.635L310.507 257.704C309.805 278.409 309.454 298.938 308.927 319.643L307.523 381.581L306.119 443.52L304.89 505.459L306.996 443.52L308.752 381.581L310.507 319.643C311.034 298.938 311.736 278.409 312.262 257.704L305.417 146.635L301.906 91.1885L298.22 35.5664Z" fill="#EBEBEB"/>
<path d="M286.284 497.037L292.252 437.028L298.045 377.019C301.731 337.014 305.592 297.008 309.278 257.002V256.827V256.651L292.252 163.304L283.651 116.631L274.875 69.9574L282.949 116.806L291.199 163.48L307.874 257.002V256.827C304.013 296.832 300.502 336.838 296.816 376.844L291.55 436.853L286.284 497.037Z" fill="#EBEBEB"/>
<path d="M321.015 264.75H300.127V252.643H321.015V264.75Z" fill="#DBDBDB"/>
<path d="M138.451 522.006H82.1073L82.1073 1.05396H138.451L138.451 522.006Z" fill="#DBDBDB"/>
<path d="M127.608 25.7404L127.257 82.0643L127.081 138.388L126.73 251.036L127.081 363.684L127.257 420.183L127.608 476.507L128.135 420.183L128.31 363.684L128.486 251.036L128.31 138.388L128.135 82.0643L127.608 25.7404Z" fill="#EBEBEB"/>
<path d="M101.806 38.9001L101.455 89.0828L101.103 139.441L100.928 239.982L101.103 340.698L101.455 390.881L101.806 441.239L102.332 390.881L102.508 340.698L102.683 239.982L102.508 139.441L102.332 89.0828L101.806 38.9001Z" fill="#EBEBEB"/>
<path d="M114.795 50.6562L114.268 109.612L114.092 168.568L113.917 286.304L114.092 404.041L114.268 462.997L114.795 521.953L115.146 462.997L115.321 404.041L115.672 286.304L115.321 168.568L115.146 109.612L114.795 50.6562Z" fill="#EBEBEB"/>
<path d="M92.1516 28.7231L91.8006 90.311L91.625 152.074L91.274 275.25L91.625 398.601L91.8006 460.189L92.1516 521.952L92.6782 460.189L92.8537 398.601L93.0292 275.25L92.8537 152.074L92.6782 90.311L92.1516 28.7231Z" fill="#EBEBEB"/>
<path d="M705.76 132.973L413.333 132.973V120.164L705.76 120.164V132.973Z" fill="#EBEBEB"/>
<path d="M429.865 133.124H442.679V175.587H429.865V133.124Z" fill="#EBEBEB"/>
<path d="M429.865 133.124H442.679V146.284H429.865V133.124Z" fill="#DBDBDB"/>
<path d="M676.656 133.124H689.469V175.587H676.656V133.124Z" fill="#EBEBEB"/>
<path d="M676.656 133.124H689.469V146.284H676.656V133.124Z" fill="#DBDBDB"/>
<path d="M467.994 120.248V38.4817L488.531 38.4817V120.248H467.994Z" fill="#C7C7C7"/>
<path d="M468.023 43.0143V34.0657L488.56 34.0657V43.0143H468.023Z" fill="#DBDBDB"/>
<path d="M468.084 58.044V54.7102L488.62 54.7102V58.044H468.084Z" fill="#DBDBDB"/>
<path d="M468.017 109.454V100.505H491.186V109.454H468.017Z" fill="#DBDBDB"/>
<path d="M488.6 120.221V24.944L502.993 24.944V120.221H488.6Z" fill="#DBDBDB"/>
<path d="M491.359 70.4882V33.8162H499.96V70.4882H491.359Z" fill="#EBEBEB"/>
<path d="M595.27 120.209L527.485 53.2289L537.603 42.9961L605.389 109.976L595.27 120.209Z" fill="#C7C7C7"/>
<path d="M581.345 102.361L555.254 76.5807L561.301 70.466L587.391 96.2464L581.345 102.361Z" fill="#DBDBDB"/>
<path d="M503.014 120.382V47.915L527.413 47.915V120.382H503.014Z" fill="#A6A6A6"/>
<path d="M502.953 112.547V105.88H527.351V112.547H502.953Z" fill="#C7C7C7"/>
<path d="M502.941 101.33V98.6976H527.339V101.33H502.941Z" fill="#C7C7C7"/>
<path d="M451.186 120.306V52.2262H468.036V120.306H451.186Z" fill="#A6A6A6"/>
<path d="M451.06 113.063V106.746H467.91V113.063H451.06Z" fill="#C7C7C7"/>
<path d="M451.167 72.5992V66.2825H468.017V72.5992H451.167Z" fill="#C7C7C7"/>
<path d="M451.195 79.4136V76.9572H468.046V79.4136H451.195Z" fill="#C7C7C7"/>
<path d="M646.816 33.1099C632.423 47.147 629.966 69.08 632.95 88.0301C632.95 88.381 633.652 88.381 633.652 87.8546C633.652 83.468 633.476 79.2569 633.476 74.8703C633.476 74.6948 633.652 74.5194 633.652 74.3439C637.338 71.5365 640.848 68.5536 642.955 64.3425C645.412 59.6049 646.29 54.341 648.221 49.428C648.396 48.9016 647.869 49.0771 647.518 49.2526C638.742 55.7447 635.934 62.5878 633.476 71.8874C633.652 67.1499 634.003 62.2369 635.056 57.4994C636.987 48.7262 640.673 39.953 646.992 33.4608C647.343 33.2853 646.992 32.7589 646.816 33.1099Z" fill="#A6A6A6"/>
<path d="M649.449 34.689C651.907 34.689 653.486 38.7247 655.417 39.953C656.47 40.6548 657.348 40.4794 658.226 39.602C660.156 36.9701 657.523 33.6363 655.066 31.8816C656.821 32.5835 658.226 33.8117 660.156 34.1626C661.385 34.3381 662.263 33.9872 662.438 32.7589C663.316 29.0742 658.752 27.495 655.593 27.495C657.172 26.4422 661.385 23.6348 659.103 22.2311C656.821 20.8274 651.731 24.8631 649.976 26.2668C647.518 28.1969 644.534 31.1798 644.534 34.3381C644.359 37.6719 647.518 35.3909 649.449 34.689Z" fill="#DBDBDB"/>
<path d="M648.747 35.3909C651.907 33.9872 658.05 36.0928 658.577 34.8645C659.63 32.408 654.715 30.8289 652.082 30.4779C654.539 29.7761 659.103 28.7233 658.928 26.4423C658.752 23.6348 651.907 26.0913 648.396 28.7233C644.008 32.0571 644.008 35.3909 644.71 36.0928C645.763 36.7946 648.22 35.5664 648.747 35.3909Z" fill="#EBEBEB"/>
<path d="M613.993 31.7062C628.913 45.2169 632.248 66.9744 629.79 86.1C629.79 86.4509 629.088 86.4509 629.088 86.1C628.913 81.7134 628.913 77.5023 628.737 73.1157C628.737 72.9402 628.561 72.7647 628.561 72.5893C624.7 69.9573 621.189 66.9744 618.907 62.9388C616.275 58.3767 615.221 52.9373 613.115 48.1998C612.94 47.6734 613.466 47.8489 613.817 48.0243C622.769 54.1656 625.929 61.0087 628.737 70.1328C628.386 65.3953 627.859 60.4823 626.631 55.7447C624.349 46.9715 620.312 38.3738 613.817 32.0571C613.291 31.8816 613.642 31.3553 613.993 31.7062Z" fill="#A6A6A6"/>
<path d="M611.36 33.4608C608.902 33.6362 607.498 37.6719 605.567 38.9002C604.514 39.602 603.637 39.602 602.759 38.5492C600.828 35.9173 603.286 32.5835 605.567 30.6534C603.812 31.5307 602.408 32.7589 600.477 33.2853C599.249 33.4608 598.371 33.1099 598.195 32.0571C597.142 28.3723 601.706 26.6177 604.865 26.4422C603.286 25.3894 598.897 22.7575 601.179 21.1783C603.461 19.5991 608.727 23.6348 610.482 24.863C612.94 26.7931 616.099 29.6006 616.275 32.7589C616.45 36.2682 613.291 34.1626 611.36 33.4608Z" fill="#DBDBDB"/>
<path d="M612.062 33.9872C608.902 32.5835 602.759 35.04 602.232 33.8117C601.179 31.3552 605.919 29.6006 608.551 29.0742C606.094 28.5478 601.53 27.6705 601.53 25.3894C601.53 22.582 608.551 24.6876 612.237 27.3195C616.801 30.4779 616.801 33.8117 616.099 34.5136C615.221 35.3909 612.589 34.1626 612.062 33.9872Z" fill="#EBEBEB"/>
<path d="M629.264 67.5009C630.317 74.6949 631.721 82.0644 633.827 88.9075C634.003 89.6093 634.88 89.4339 634.88 88.732C633.827 82.0644 632.072 75.7477 631.194 69.0801C630.141 62.4124 629.615 55.5693 629.966 48.9017C630.668 37.8475 633.652 25.9159 640.848 17.3182C641.024 17.1427 640.673 16.7918 640.497 16.9673C625.929 33.8118 628.21 54.692 628.386 56.4466C626.28 49.4281 624.173 41.3567 616.45 34.3382C616.099 33.9873 615.924 34.1627 615.924 34.6891C617.328 47.6735 621.014 54.5165 628.386 61.3596C628.562 63.2897 628.913 65.3953 629.264 67.5009Z" fill="#A6A6A6"/>
<path d="M641.024 19.0728C643.657 17.8445 647.167 21.1784 649.8 21.5293C651.204 21.7047 652.258 21.1784 652.433 19.7746C653.135 15.9144 648.747 13.8089 645.237 13.107C647.518 12.9316 649.625 13.6334 651.731 12.9316C652.96 12.5806 653.662 11.7033 653.486 10.2996C652.609 6.08846 646.992 6.79031 643.657 8.19402C644.71 6.26392 647.694 1.17547 644.71 0.824538C641.55 0.47361 638.391 7.3167 637.338 9.59774C635.758 12.9316 634.178 17.4936 635.758 20.652C637.338 24.6876 639.444 20.8274 641.024 19.0728Z" fill="#DBDBDB"/>
<path d="M640.673 20.1255C643.13 16.9672 650.502 16.0898 650.502 14.5107C650.327 11.5278 644.359 12.2296 641.55 13.2824C643.657 11.3523 648.045 8.0185 646.641 5.56201C645.061 2.75459 639.093 8.72036 636.811 13.2824C634.003 19.0727 635.583 22.4065 636.636 22.7575C638.215 23.1084 640.146 20.6519 640.673 20.1255Z" fill="#EBEBEB"/>
<path d="M619.61 71.3611L613.291 120.316H652.258C651.38 115.929 644.183 71.3611 644.183 71.3611H619.61Z" fill="#DBDBDB"/>
<path d="M733 617.931L641.375 617.405L549.75 617.229L366.5 617.054L183.25 617.229L91.625 617.405L0 617.931L91.625 618.282L183.25 618.458L366.5 618.809L549.75 618.458L641.375 618.282L733 617.931Z" fill="#263238"/>
<path d="M366.5 729C172.521 729 15.2708 707.397 15.2708 680.747C15.2708 654.098 172.521 632.495 366.5 632.495C560.478 632.495 717.729 654.098 717.729 680.747C717.729 707.397 560.478 729 366.5 729Z" fill="#EBEBEB"/>
<path d="M21.4143 604.421H140.422V617.931H21.4143V604.421Z" fill="#455A64"/>
<path d="M73.8969 184.535H87.939V604.421H73.8969V184.535Z" fill="#455A64"/>
<path d="M73.8969 184.535H87.939V255.949H73.8969V184.535Z" fill="#263238"/>
<path d="M6.31903 225.945H155.517L144.81 190.15L144.283 188.922L112.864 85.2227H49.1476L17.5527 188.922V189.097L17.2017 190.15L6.31903 225.945Z" fill="#8366DA"/>
<path d="M107.422 109.261C107.422 109.788 107.949 110.314 108.476 110.314C109.002 110.314 109.529 109.788 109.529 109.261C109.529 108.735 109.002 108.208 108.476 108.208C107.949 108.208 107.422 108.559 107.422 109.261Z" fill="white"/>
<path d="M89.1677 109.261C89.1677 109.788 89.6943 110.314 90.2208 110.314C90.7474 110.314 91.274 109.788 91.274 109.261C91.274 108.735 90.7474 108.208 90.2208 108.208C89.5187 108.208 89.1677 108.559 89.1677 109.261Z" fill="white"/>
<path d="M70.7374 109.261C70.7374 109.788 71.2639 110.314 71.7905 110.314C72.3171 110.314 72.8437 109.788 72.8437 109.261C72.8437 108.735 72.3171 108.208 71.7905 108.208C71.0884 108.208 70.7374 108.559 70.7374 109.261Z" fill="white"/>
<path d="M52.3071 109.261C52.3071 109.788 52.8336 110.314 53.3602 110.314C53.8868 110.314 54.4134 109.788 54.4134 109.261C54.4134 108.735 53.8868 108.208 53.3602 108.208C52.8336 108.208 52.3071 108.559 52.3071 109.261Z" fill="white"/>
<path d="M98.295 96.2769C98.295 96.8033 98.8216 97.3297 99.3482 97.3297C99.8748 97.3297 100.401 96.8033 100.401 96.2769C100.401 95.7505 99.8748 95.2241 99.3482 95.2241C98.8216 95.3996 98.295 95.7505 98.295 96.2769Z" fill="white"/>
<path d="M79.8647 96.2769C79.8647 96.8033 80.3913 97.3297 80.9179 97.3297C81.4445 97.3297 81.9711 96.8033 81.9711 96.2769C81.9711 95.7505 81.4445 95.2241 80.9179 95.2241C80.3913 95.3996 79.8647 95.7505 79.8647 96.2769Z" fill="white"/>
<path d="M61.4344 96.2769C61.4344 96.8033 61.961 97.3297 62.4875 97.3297C63.0141 97.3297 63.5407 96.8033 63.5407 96.2769C63.5407 95.7505 63.0141 95.2241 62.4875 95.2241C61.961 95.3996 61.4344 95.7505 61.4344 96.2769Z" fill="white"/>
<path d="M125.853 135.932C125.853 136.458 126.379 136.985 126.906 136.985C127.433 136.985 127.959 136.458 127.959 135.932C127.959 135.405 127.433 134.879 126.906 134.879C126.379 134.879 125.853 135.405 125.853 135.932Z" fill="white"/>
<path d="M107.422 135.932C107.422 136.458 107.949 136.985 108.476 136.985C109.002 136.985 109.529 136.458 109.529 135.932C109.529 135.405 109.002 134.879 108.476 134.879C107.949 134.879 107.422 135.405 107.422 135.932Z" fill="white"/>
<path d="M89.1677 135.932C89.1677 136.458 89.6943 136.985 90.2208 136.985C90.7474 136.985 91.274 136.458 91.274 135.932C91.274 135.405 90.7474 134.879 90.2208 134.879C89.5187 134.879 89.1677 135.405 89.1677 135.932Z" fill="white"/>
<path d="M70.7374 135.932C70.7374 136.458 71.2639 136.985 71.7905 136.985C72.3171 136.985 72.8437 136.458 72.8437 135.932C72.8437 135.405 72.3171 134.879 71.7905 134.879C71.0884 134.879 70.7374 135.405 70.7374 135.932Z" fill="white"/>
<path d="M52.3071 135.932C52.3071 136.458 52.8336 136.985 53.3602 136.985C53.8868 136.985 54.4134 136.458 54.4134 135.932C54.4134 135.405 53.8868 134.879 53.3602 134.879C52.8336 134.879 52.3071 135.405 52.3071 135.932Z" fill="white"/>
<path d="M33.8768 135.932C33.8768 136.458 34.4033 136.985 34.9299 136.985C35.4565 136.985 35.9831 136.458 35.9831 135.932C35.9831 135.405 35.4565 134.879 34.9299 134.879C34.4033 134.879 33.8768 135.405 33.8768 135.932Z" fill="white"/>
<path d="M116.725 123.123C116.725 123.649 117.252 124.176 117.779 124.176C118.305 124.176 118.832 123.649 118.832 123.123C118.832 122.597 118.305 122.07 117.779 122.07C117.076 122.07 116.725 122.421 116.725 123.123Z" fill="white"/>
<path d="M98.295 123.123C98.295 123.649 98.8216 124.176 99.3482 124.176C99.8748 124.176 100.401 123.649 100.401 123.123C100.401 122.597 99.8748 122.07 99.3482 122.07C98.8216 122.07 98.295 122.421 98.295 123.123Z" fill="white"/>
<path d="M79.8647 123.123C79.8647 123.649 80.3913 124.176 80.9179 124.176C81.4445 124.176 81.9711 123.649 81.9711 123.123C81.9711 122.597 81.4445 122.07 80.9179 122.07C80.3913 122.07 79.8647 122.421 79.8647 123.123Z" fill="white"/>
<path d="M61.4344 123.123C61.4344 123.649 61.961 124.176 62.4875 124.176C63.0141 124.176 63.5407 123.649 63.5407 123.123C63.5407 122.597 63.0141 122.07 62.4875 122.07C61.961 122.07 61.4344 122.421 61.4344 123.123Z" fill="white"/>
<path d="M43.1797 123.123C43.1797 123.649 43.7063 124.176 44.2328 124.176C44.7594 124.176 45.286 123.649 45.286 123.123C45.286 122.597 44.7594 122.07 44.2328 122.07C43.5307 122.07 43.1797 122.421 43.1797 123.123Z" fill="white"/>
<path d="M125.853 162.602C125.853 163.129 126.379 163.655 126.906 163.655C127.433 163.655 127.959 163.129 127.959 162.602C127.959 162.076 127.433 161.55 126.906 161.55C126.379 161.725 125.853 162.076 125.853 162.602Z" fill="white"/>
<path d="M107.422 162.602C107.422 163.129 107.949 163.655 108.476 163.655C109.002 163.655 109.529 163.129 109.529 162.602C109.529 162.076 109.002 161.55 108.476 161.55C107.949 161.55 107.422 162.076 107.422 162.602Z" fill="white"/>
<path d="M89.1677 162.602C89.1677 163.129 89.6943 163.655 90.2208 163.655C90.7474 163.655 91.274 163.129 91.274 162.602C91.274 162.076 90.7474 161.55 90.2208 161.55C89.5187 161.725 89.1677 162.076 89.1677 162.602Z" fill="white"/>
<path d="M70.7374 162.602C70.7374 163.129 71.2639 163.655 71.7905 163.655C72.3171 163.655 72.8437 163.129 72.8437 162.602C72.8437 162.076 72.3171 161.55 71.7905 161.55C71.0884 161.725 70.7374 162.076 70.7374 162.602Z" fill="white"/>
<path d="M52.3071 162.602C52.3071 163.129 52.8336 163.655 53.3602 163.655C53.8868 163.655 54.4134 163.129 54.4134 162.602C54.4134 162.076 53.8868 161.55 53.3602 161.55C52.8336 161.725 52.3071 162.076 52.3071 162.602Z" fill="white"/>
<path d="M33.8768 162.602C33.8768 163.129 34.4033 163.655 34.9299 163.655C35.4565 163.655 35.9831 163.129 35.9831 162.602C35.9831 162.076 35.4565 161.55 34.9299 161.55C34.4033 161.55 33.8768 162.076 33.8768 162.602Z" fill="white"/>
<path d="M116.725 149.793C116.725 150.32 117.252 150.846 117.779 150.846C118.305 150.846 118.832 150.32 118.832 149.793C118.832 149.267 118.305 148.741 117.779 148.741C117.076 148.741 116.725 149.267 116.725 149.793Z" fill="white"/>
<path d="M98.295 149.793C98.295 150.32 98.8216 150.846 99.3482 150.846C99.8748 150.846 100.401 150.32 100.401 149.793C100.401 149.267 99.8748 148.741 99.3482 148.741C98.8216 148.741 98.295 149.267 98.295 149.793Z" fill="white"/>
<path d="M80.9179 150.846C80.3363 150.846 79.8647 150.375 79.8647 149.793C79.8647 149.212 80.3363 148.741 80.9179 148.741C81.4995 148.741 81.9711 149.212 81.9711 149.793C81.9711 150.375 81.4995 150.846 80.9179 150.846Z" fill="white"/>
<path d="M61.4344 149.793C61.4344 150.32 61.961 150.846 62.4875 150.846C63.0141 150.846 63.5407 150.32 63.5407 149.793C63.5407 149.267 63.0141 148.741 62.4875 148.741C61.961 148.741 61.4344 149.267 61.4344 149.793Z" fill="white"/>
<path d="M44.0573 150.846C43.4756 150.846 43.0041 150.375 43.0041 149.793C43.0041 149.212 43.4756 148.741 44.0573 148.741C44.6389 148.741 45.1104 149.212 45.1104 149.793C45.1104 150.375 44.6389 150.846 44.0573 150.846Z" fill="white"/>
<path d="M144.283 189.448C144.283 189.799 144.459 190.15 144.81 190.326L144.459 189.097C144.283 189.097 144.283 189.273 144.283 189.448Z" fill="white"/>
<path d="M125.853 189.448C125.853 189.975 126.379 190.501 126.906 190.501C127.433 190.501 127.959 189.975 127.959 189.448C127.959 188.922 127.433 188.396 126.906 188.396C126.379 188.396 125.853 188.922 125.853 189.448Z" fill="white"/>
<path d="M107.422 189.448C107.422 189.975 107.949 190.501 108.476 190.501C109.002 190.501 109.529 189.975 109.529 189.448C109.529 188.922 109.002 188.396 108.476 188.396C107.949 188.396 107.422 188.922 107.422 189.448Z" fill="white"/>
<path d="M89.1677 189.448C89.1677 189.975 89.6943 190.501 90.2208 190.501C90.7474 190.501 91.274 189.975 91.274 189.448C91.274 188.922 90.7474 188.396 90.2208 188.396C89.5187 188.396 89.1677 188.922 89.1677 189.448Z" fill="white"/>
<path d="M70.7374 189.448C70.7374 189.975 71.2639 190.501 71.7905 190.501C72.3171 190.501 72.8437 189.975 72.8437 189.448C72.8437 188.922 72.3171 188.396 71.7905 188.396C71.0884 188.396 70.7374 188.922 70.7374 189.448Z" fill="white"/>
<path d="M52.3071 189.448C52.3071 189.975 52.8336 190.501 53.3602 190.501C53.8868 190.501 54.4134 189.975 54.4134 189.448C54.4134 188.922 53.8868 188.396 53.3602 188.396C52.8336 188.396 52.3071 188.922 52.3071 189.448Z" fill="white"/>
<path d="M34.9299 190.501C34.3483 190.501 33.8768 190.03 33.8768 189.448C33.8768 188.867 34.3483 188.396 34.9299 188.396C35.5116 188.396 35.9831 188.867 35.9831 189.448C35.9831 190.03 35.5116 190.501 34.9299 190.501Z" fill="white"/>
<path d="M17.2017 190.15C17.3773 189.975 17.5528 189.624 17.5528 189.273C17.5528 189.097 17.5528 189.097 17.5528 188.922L17.2017 190.15Z" fill="white"/>
<path d="M135.156 176.464C135.156 176.99 135.682 177.517 136.209 177.517C136.735 177.517 137.262 176.99 137.262 176.464C137.262 175.938 136.735 175.411 136.209 175.411C135.507 175.587 135.156 175.938 135.156 176.464Z" fill="white"/>
<path d="M116.725 176.464C116.725 176.99 117.252 177.517 117.779 177.517C118.305 177.517 118.832 176.99 118.832 176.464C118.832 175.938 118.305 175.411 117.779 175.411C117.076 175.587 116.725 175.938 116.725 176.464Z" fill="white"/>
<path d="M98.295 176.464C98.295 176.99 98.8216 177.517 99.3482 177.517C99.8748 177.517 100.401 176.99 100.401 176.464C100.401 175.938 99.8748 175.411 99.3482 175.411C98.8216 175.587 98.295 175.938 98.295 176.464Z" fill="white"/>
<path d="M79.8647 176.464C79.8647 176.99 80.3913 177.517 80.9179 177.517C81.4445 177.517 81.9711 176.99 81.9711 176.464C81.9711 175.938 81.4445 175.411 80.9179 175.411C80.3913 175.587 79.8647 175.938 79.8647 176.464Z" fill="white"/>
<path d="M61.4344 176.464C61.4344 176.99 61.961 177.517 62.4875 177.517C63.0141 177.517 63.5407 176.99 63.5407 176.464C63.5407 175.938 63.0141 175.411 62.4875 175.411C61.961 175.587 61.4344 175.938 61.4344 176.464Z" fill="white"/>
<path d="M43.1797 176.464C43.1797 176.99 43.7063 177.517 44.2328 177.517C44.7594 177.517 45.286 176.99 45.286 176.464C45.286 175.938 44.7594 175.411 44.2328 175.411C43.5307 175.587 43.1797 175.938 43.1797 176.464Z" fill="white"/>
<path d="M24.7493 176.464C24.7493 176.99 25.2759 177.517 25.8025 177.517C26.3291 177.517 26.8557 176.99 26.8557 176.464C26.8557 175.938 26.3291 175.411 25.8025 175.411C25.1004 175.587 24.7493 175.938 24.7493 176.464Z" fill="white"/>
<path d="M144.283 216.119C144.283 216.645 144.81 217.172 145.336 217.172C145.863 217.172 146.389 216.645 146.389 216.119C146.389 215.592 145.863 215.066 145.336 215.066C144.81 215.066 144.283 215.592 144.283 216.119Z" fill="white"/>
<path d="M125.853 216.119C125.853 216.645 126.379 217.172 126.906 217.172C127.433 217.172 127.959 216.645 127.959 216.119C127.959 215.592 127.433 215.066 126.906 215.066C126.379 215.066 125.853 215.592 125.853 216.119Z" fill="white"/>
<path d="M107.422 216.119C107.422 216.645 107.949 217.172 108.476 217.172C109.002 217.172 109.529 216.645 109.529 216.119C109.529 215.592 109.002 215.066 108.476 215.066C107.949 215.066 107.422 215.592 107.422 216.119Z" fill="white"/>
<path d="M89.1677 216.119C89.1677 216.645 89.6943 217.172 90.2208 217.172C90.7474 217.172 91.274 216.645 91.274 216.119C91.274 215.592 90.7474 215.066 90.2208 215.066C89.5187 215.066 89.1677 215.592 89.1677 216.119Z" fill="white"/>
<path d="M70.7374 216.119C70.7374 216.645 71.2639 217.172 71.7905 217.172C72.3171 217.172 72.8437 216.645 72.8437 216.119C72.8437 215.592 72.3171 215.066 71.7905 215.066C71.0884 215.066 70.7374 215.592 70.7374 216.119Z" fill="white"/>
<path d="M52.3071 216.119C52.3071 216.645 52.8336 217.172 53.3602 217.172C53.8868 217.172 54.4134 216.645 54.4134 216.119C54.4134 215.592 53.8868 215.066 53.3602 215.066C52.8336 215.066 52.3071 215.592 52.3071 216.119Z" fill="white"/>
<path d="M34.9299 217.172C34.3483 217.172 33.8768 216.7 33.8768 216.119C33.8768 215.537 34.3483 215.066 34.9299 215.066C35.5116 215.066 35.9831 215.537 35.9831 216.119C35.9831 216.7 35.5116 217.172 34.9299 217.172Z" fill="white"/>
<path d="M15.6219 216.119C15.6219 216.645 16.1485 217.172 16.6751 217.172C17.2017 217.172 17.7283 216.645 17.7283 216.119C17.7283 215.592 17.2017 215.066 16.6751 215.066C16.1485 215.066 15.6219 215.592 15.6219 216.119Z" fill="white"/>
<path d="M135.156 203.31C135.156 203.836 135.682 204.363 136.209 204.363C136.735 204.363 137.262 203.836 137.262 203.31C137.262 202.783 136.735 202.257 136.209 202.257C135.507 202.257 135.156 202.783 135.156 203.31Z" fill="white"/>
<path d="M116.725 203.31C116.725 203.836 117.252 204.363 117.779 204.363C118.305 204.363 118.832 203.836 118.832 203.31C118.832 202.783 118.305 202.257 117.779 202.257C117.076 202.257 116.725 202.783 116.725 203.31Z" fill="white"/>
<path d="M98.295 203.31C98.295 203.836 98.8216 204.363 99.3482 204.363C99.8748 204.363 100.401 203.836 100.401 203.31C100.401 202.783 99.8748 202.257 99.3482 202.257C98.8216 202.257 98.295 202.783 98.295 203.31Z" fill="white"/>
<path d="M79.8647 203.31C79.8647 203.836 80.3913 204.363 80.9179 204.363C81.4445 204.363 81.9711 203.836 81.9711 203.31C81.9711 202.783 81.4445 202.257 80.9179 202.257C80.3913 202.257 79.8647 202.783 79.8647 203.31Z" fill="white"/>
<path d="M61.4344 203.31C61.4344 203.836 61.961 204.363 62.4875 204.363C63.0141 204.363 63.5407 203.836 63.5407 203.31C63.5407 202.783 63.0141 202.257 62.4875 202.257C61.961 202.257 61.4344 202.783 61.4344 203.31Z" fill="white"/>
<path d="M43.1797 203.31C43.1797 203.836 43.7063 204.363 44.2328 204.363C44.7594 204.363 45.286 203.836 45.286 203.31C45.286 202.783 44.7594 202.257 44.2328 202.257C43.5307 202.257 43.1797 202.783 43.1797 203.31Z" fill="white"/>
<path d="M24.7493 203.31C24.7493 203.836 25.2759 204.363 25.8025 204.363C26.3291 204.363 26.8557 203.836 26.8557 203.31C26.8557 202.783 26.3291 202.257 25.8025 202.257C25.1004 202.257 24.7493 202.783 24.7493 203.31Z" fill="white"/>
<path d="M625.402 656.709L289.268 658.113C207.648 594.068 199.223 498.967 257.498 441.415C292.779 406.673 337.538 413.691 380.191 408.076C380.191 408.076 380.191 408.076 380.367 408.076C395.286 406.146 409.855 402.637 423.546 395.443C467.428 372.282 492.177 317.713 529.213 271.741C533.777 265.951 538.692 260.336 543.607 254.896C573.973 222.436 634.529 221.383 666.124 267.003C746.34 382.81 709.655 555.291 625.402 656.709Z" fill="#C7C7C7"/>
<path d="M632.774 391.758C623.998 529.673 464.795 581.084 365.271 539.674C278.737 503.704 307.172 421.763 380.016 408.076C380.016 408.076 380.016 408.076 380.191 408.076C395.111 406.146 409.68 402.637 423.371 395.443C467.252 372.282 492.002 317.712 529.038 271.741C584.153 243.14 639.269 290.866 632.774 391.758Z" fill="#A6A6A6"/>
<path d="M71.4395 675.483C77.2319 675.659 226.254 629.512 230.818 624.248C231.344 623.722 228.887 617.229 225.025 599.683C224.85 598.806 227.132 594.595 230.642 588.278C244.333 564.766 278.035 513.706 278.035 513.706L182.021 476.332L136.033 571.433L124.098 596.174C124.098 596.174 74.4234 646.181 70.0353 652.498C65.8226 658.814 65.8227 675.308 71.4395 675.483Z" fill="#AC6359"/>
<path d="M71.4395 675.484C77.2319 675.659 226.254 629.512 230.818 624.248C231.344 623.722 228.887 617.23 225.025 599.683C200.101 609.86 96.0132 652.322 88.6411 647.058C84.2529 643.9 87.939 635.653 92.3271 628.459C81.62 639.513 71.7905 649.866 70.0352 652.498C65.8226 658.814 65.8226 675.308 71.4395 675.484Z" fill="#263238"/>
<path d="M150.427 529.497L166.399 538.271L217.829 566.871L245.913 582.488C245.913 582.488 294.359 485.982 317.528 459.838C319.108 458.084 320.512 456.68 321.741 455.627C323.145 454.75 325.778 454.223 329.288 453.697C360.532 449.837 465.673 460.189 538.341 455.452L504.464 410.182L489.369 390.004C407.573 380.704 307.172 347.19 261.711 370.001C212.563 394.741 150.427 529.497 150.427 529.497Z" fill="#37474F"/>
<path d="M166.399 518.443C182.372 526.865 177.984 524.233 193.957 532.656C201.856 536.867 240.998 557.747 247.668 562.836C247.844 563.011 247.668 563.186 247.493 563.186C239.594 560.379 200.803 538.622 193.08 534.235C177.282 525.462 181.846 527.743 166.224 518.794C165.873 518.794 166.048 518.268 166.399 518.443Z" fill="#263238"/>
<path d="M217.653 566.871L245.738 582.488C245.738 582.488 294.183 485.983 317.353 459.838L217.653 566.871Z" fill="#263238"/>
<path d="M235.908 569.328C247.844 549.325 302.257 450.714 313.14 446.854C322.969 443.345 520.262 447.38 523.245 447.38C523.421 447.38 523.421 447.731 523.245 447.731C499.9 447.38 319.634 446.854 314.369 448.784C303.661 452.995 238.541 567.398 236.961 569.854C236.61 570.381 235.557 569.854 235.908 569.328Z" fill="#263238"/>
<path d="M593.632 414.218C593.632 414.218 599.951 473.7 569.76 503.178C533.602 538.622 295.236 529.673 258.376 517.741C221.515 505.81 220.286 446.152 260.657 432.466C299.098 419.306 469.359 411.761 473.396 410.182C477.433 408.603 489.193 389.653 489.193 389.653L593.632 414.218Z" fill="#37474F"/>
<path d="M543.08 412.639C543.08 412.288 543.607 412.463 543.607 412.639C543.607 420.184 546.415 428.079 551.33 433.694C556.947 440.186 565.372 443.871 572.92 447.731C573.622 448.082 573.095 449.311 572.393 448.96C567.829 447.556 563.266 445.626 559.053 443.169C555.191 441.064 551.681 438.256 549.048 434.747C543.958 428.43 541.851 420.71 543.08 412.639Z" fill="#263238"/>
<path d="M474.8 406.497C476.555 404.392 478.311 402.286 480.066 400.181C484.278 395.268 488.491 390.179 492.704 385.442C493.055 384.915 493.932 385.617 493.581 386.143C490.597 390.004 487.614 393.688 484.454 397.373C482.874 399.303 481.295 401.233 479.715 403.163C478.311 404.918 476.38 406.673 475.327 408.778C474.273 410.884 475.678 412.814 477.96 412.989C479.89 413.165 481.821 412.112 483.225 411.059C486.736 408.427 489.369 404.567 492.177 401.409C493.932 399.479 495.688 397.549 497.443 395.443C499.374 393.337 501.305 391.407 503.235 389.302C503.411 389.126 503.586 389.302 503.411 389.477C501.831 391.758 500.251 394.039 498.672 396.32C497.092 398.601 495.337 400.882 493.581 402.988C492.002 405.094 490.246 407.199 488.667 409.129C487.262 410.884 485.507 412.463 483.576 413.691C480.417 415.621 474.976 415.972 473.22 411.937C472.518 410.182 473.571 408.076 474.8 406.497Z" fill="#263238"/>
<path d="M263.115 518.092C275.753 518.268 288.566 519.145 301.204 519.321C313.842 519.671 326.48 519.671 339.118 519.496C364.394 519.321 389.845 518.268 415.121 516.513C440.748 514.758 468.306 512.126 493.581 508.617C505.693 506.863 517.98 505.459 530.091 503.002C540.974 500.721 550.803 496.159 558.877 488.263C575.377 472.296 581.696 448.959 584.329 426.5C584.68 423.517 585.031 420.534 585.206 417.551C585.206 417.376 585.557 417.376 585.557 417.551C584.153 440.537 580.467 464.4 566.074 482.824C559.755 490.895 551.856 497.388 542.553 501.072C531.144 505.634 518.506 506.687 506.57 508.266C481.119 511.776 453.386 514.408 427.759 516.338C401.956 518.268 376.154 519.671 350.176 520.022C324.374 520.373 298.396 520.022 272.593 518.794C269.434 518.619 266.274 518.443 263.115 518.092C262.939 518.092 262.939 518.268 263.115 518.092Z" fill="#263238"/>
<path d="M229.238 462.47C231.695 452.469 237.663 443.871 246.264 438.081C255.392 431.764 266.45 428.957 277.157 427.377C289.444 425.623 301.906 424.745 314.193 423.517C339.469 421.061 364.745 418.78 390.196 416.674C415.472 414.568 470.061 410.357 473.22 410.182C473.571 410.182 473.571 410.708 473.22 410.708C448.822 413.34 426.53 415.797 401.956 417.902C377.383 420.183 352.809 422.464 328.06 424.921C315.773 426.149 303.486 427.377 291.374 428.606C279.965 429.834 268.381 430.887 257.673 435.273C248.546 438.958 240.296 445.099 235.733 454.048C231.169 462.646 230.291 472.822 232.046 482.298C233.802 491.071 237.839 499.668 243.807 506.161C249.775 512.653 257.322 517.741 265.923 519.496C268.205 520.022 270.838 520.373 272.944 520.724C273.12 520.724 273.295 521.075 273.12 521.075C254.865 521.601 237.839 508.091 231.344 491.422C227.658 482.473 226.956 472.121 229.238 462.47Z" fill="#263238"/>
<path d="M534.304 299.991C493.23 325.258 409.504 350.524 399.148 332.802C386.335 311.22 410.557 259.459 412.839 252.615C415.296 245.07 475.151 270.688 469.71 277.18C466.55 281.041 464.093 285.427 465.322 285.427C469.359 285.427 480.241 281.392 522.192 275.601C545.537 272.618 561.51 283.322 534.304 299.991Z" fill="#AC6359"/>
<path d="M478.486 280.514L487.087 299.991L497.97 324.38C497.97 324.38 525.878 312.624 540.974 299.991C552.032 290.691 556.245 280.69 550.628 275.952C548.697 274.197 545.362 273.145 540.798 273.145C514.645 272.618 478.486 280.514 478.486 280.514Z" fill="#8366DA"/>
<path d="M487.965 279.988C491.651 287.357 504.64 314.554 504.991 318.59C504.991 318.59 504.815 318.765 504.64 318.765C502.007 315.782 490.597 287.884 487.613 280.339C487.613 280.163 487.965 279.812 487.965 279.988Z" fill="#263238"/>
<path d="M487.087 299.815L497.97 324.205C497.97 324.205 525.878 312.449 540.974 299.815C552.032 290.516 556.245 280.514 550.628 275.777L487.087 299.815Z" fill="#263238"/>
<path d="M425.653 220.33C417.754 230.507 409.504 257.879 410.206 265.249C410.733 272.618 456.896 287.884 463.215 283.672C469.534 279.461 493.757 242.789 493.581 229.63C493.055 216.294 433.902 209.627 425.653 220.33Z" fill="#AC6359"/>
<path d="M493.406 199.625C497.443 195.063 512.889 183.834 516.751 187.343C520.613 190.852 511.836 201.204 508.15 205.24C500.602 213.662 494.986 228.226 492.353 235.42C489.72 242.614 476.029 229.103 476.029 229.103C476.029 229.103 483.05 211.206 493.406 199.625Z" fill="#AC6359"/>
<path d="M483.927 243.491C483.927 243.491 479.715 256.125 471.992 256.125C464.619 256.125 466.024 245.246 466.024 244.544C465.848 245.246 461.636 256.827 453.912 255.949C446.014 255.072 449.173 244.544 449.349 243.842C448.998 244.369 443.381 251.738 437.588 249.808C427.759 246.474 441.625 227.349 440.046 219.102C440.046 219.102 425.828 220.33 425.477 220.33C425.477 220.33 438.29 201.731 449.349 200.152C455.141 199.274 457.247 204.538 457.247 204.538C457.247 204.538 460.758 198.046 466.726 198.572C469.885 198.748 472.167 204.012 472.167 204.012C472.167 204.012 475.151 198.923 480.592 199.625C484.805 200.152 487.087 205.416 487.438 207.521C489.895 223.137 483.927 243.491 483.927 243.491Z" fill="#AC6359"/>
<path d="M487.087 206.117C487.087 205.942 487.262 205.942 487.262 206.117C489.895 218.4 489.018 232.613 483.927 244.018C483.752 244.369 483.05 244.369 483.225 243.842C486.209 231.033 487.789 219.277 487.087 206.117Z" fill="#263238"/>
<path d="M472.518 203.836C472.518 203.661 472.694 203.661 472.694 203.836C475.327 216.47 473.922 232.437 466.375 245.07C466.199 245.421 465.497 245.597 465.673 245.07C470.061 236.297 473.045 215.593 472.518 203.836Z" fill="#263238"/>
<path d="M448.647 244.369C455.317 232.086 457.423 218.751 457.598 204.889C457.598 204.714 457.774 204.714 457.949 204.889C459.705 211.732 458.652 220.505 457.247 227.349C455.843 233.841 453.386 239.456 449.173 244.544C448.822 244.895 448.471 244.719 448.647 244.369Z" fill="#263238"/>
<path d="M483.927 243.491C482.874 245.772 481.646 248.053 480.241 250.159C478.837 252.264 477.082 254.195 474.8 255.247C473.747 255.774 472.518 255.774 471.465 255.423C470.412 255.072 469.359 254.37 468.657 253.493C467.077 251.738 466.726 249.282 467.077 247.001L467.779 241.386L465.146 246.299C463.917 248.404 462.513 250.685 460.582 252.264C458.827 254.019 456.545 255.072 454.439 254.896C452.157 254.721 450.402 253.317 449.875 251.036C449.349 248.755 449.875 246.123 450.577 243.842L452.684 237.525L448.647 242.789C447.593 244.193 446.189 245.597 444.785 246.825C443.381 247.878 441.625 248.755 440.046 248.931C438.466 249.106 436.711 248.229 436.009 246.825C435.307 245.421 435.307 243.491 435.482 241.561C435.833 237.701 437.237 234.016 438.29 230.331C438.817 228.401 439.344 226.647 439.87 224.717C440.221 222.786 440.748 220.856 440.397 218.926C440.572 220.856 439.87 222.786 439.344 224.717C438.817 226.647 438.115 228.401 437.413 230.156C436.009 233.841 434.78 237.525 434.078 241.561C433.727 243.491 433.551 245.772 434.604 247.878C435.658 250.159 438.115 251.212 440.397 251.212C442.679 251.036 444.609 249.983 446.365 248.755C447.944 247.527 449.524 246.123 450.753 244.369L448.822 243.316C447.944 245.948 447.418 248.755 447.944 251.738C448.295 253.142 448.998 254.721 450.226 255.774C451.455 256.826 453.035 257.353 454.439 257.353C457.598 257.528 460.407 255.949 462.338 254.019C464.444 252.089 465.848 249.808 467.252 247.351L465.322 246.825C464.971 249.632 465.673 252.615 467.779 254.721C468.832 255.774 470.061 256.476 471.465 256.827C472.869 257.177 474.449 257.002 475.678 256.3C478.135 255.072 479.715 252.791 481.119 250.51C481.997 248.404 483.05 245.948 483.927 243.491Z" fill="#263238"/>
<path d="M468.306 278.233C468.306 278.233 516.575 251.563 496.916 237.701C491.124 233.665 462.162 223.839 460.056 229.63C457.423 236.999 468.657 243.491 476.38 246.299C476.38 246.299 458.652 253.142 459.705 266.828C460.407 275.426 468.306 278.233 468.306 278.233Z" fill="#AC6359"/>
<path d="M498.496 238.929C496.39 236.999 493.932 235.595 491.475 234.367C489.018 233.139 486.385 232.086 483.752 231.209C478.486 229.454 473.045 227.875 467.428 226.998C466.024 226.822 464.62 226.647 462.864 226.822C462.162 226.998 461.284 227.173 460.407 227.7C460.056 227.875 459.705 228.226 459.354 228.577C459.003 228.928 458.827 229.454 458.652 229.805C457.949 231.56 458.301 233.139 458.827 234.718C459.354 236.122 460.231 237.525 461.284 238.578C463.391 240.859 465.848 242.438 468.306 243.842C470.763 245.246 473.396 246.299 476.204 247.176V245.421C474.098 246.299 472.343 247.351 470.587 248.58C468.832 249.808 467.077 251.036 465.673 252.615C464.093 254.195 462.864 255.949 461.987 257.879C460.933 259.809 460.407 261.915 460.231 263.845C460.758 261.74 461.46 259.809 462.689 258.055C463.742 256.3 465.146 254.721 466.726 253.493C468.306 252.089 469.885 250.861 471.641 249.808C473.396 248.755 475.327 247.878 477.082 247.176L479.364 246.299L477.082 245.246C474.625 244.193 471.992 243.14 469.71 241.737C467.428 240.333 465.146 238.929 463.391 236.999C461.636 235.069 460.407 232.613 461.284 230.507C461.811 228.752 464.795 228.577 467.428 228.928C470.061 229.279 472.869 229.805 475.502 230.331C478.135 230.858 480.943 231.56 483.576 232.262C488.491 234.192 493.757 235.771 498.496 238.929Z" fill="#263238"/>
<path d="M465.497 285.603L461.811 289.989L458.125 294.376L450.753 303.149C448.295 306.132 445.838 308.939 443.205 311.747C441.977 313.15 440.572 314.554 439.344 315.958C438.115 317.362 436.711 318.765 435.306 320.169C438.466 318.063 441.45 315.431 444.083 312.8C446.891 310.168 449.524 307.185 451.982 304.377C454.439 301.394 456.896 298.412 459.178 295.253C461.284 292.095 463.391 288.936 465.497 285.603Z" fill="#263238"/>
<path d="M469.885 401.584C471.465 407.375 559.755 439.134 603.286 430.36C603.286 430.36 609.605 348.945 572.393 285.953C563.441 270.864 542.378 270.513 530.793 277.18C527.985 278.935 523.772 282.093 519.208 285.953C508.15 295.604 488.14 319.818 485.332 327.012C480.592 338.768 488.842 354.034 488.842 354.034L469.885 401.584Z" fill="#8366DA"/>
<path d="M583.276 297.534C610.482 334.382 636.987 402.813 619.259 415.27C595.387 432.115 522.017 441.766 464.093 440.537C456.019 440.362 464.795 379.827 473.396 379.476C484.279 379.125 566.425 376.493 568.531 374.212C570.287 372.282 564.67 341.576 561.861 309.641C558.702 272.267 575.552 287.006 583.276 297.534Z" fill="#AC6359"/>
<path d="M475.151 379.476C475.151 379.476 450.753 377.721 434.78 377.195C425.828 377.019 410.557 377.897 403.887 380.704C393.882 384.915 355.091 408.954 360.708 418.429C365.798 427.027 396.515 402.286 396.515 402.286C396.515 402.286 363.34 424.57 371.415 433.87C379.489 443.169 410.382 410.533 410.382 410.533C410.382 410.533 376.856 434.221 386.51 442.467C393.882 448.609 423.546 420.71 423.546 420.71C423.546 420.71 394.76 441.239 402.132 448.082C410.206 455.452 439.344 431.413 439.344 431.413C460.933 445.45 476.906 443.169 487.965 440.362C490.773 439.485 475.151 379.476 475.151 379.476Z" fill="#AC6359"/>
<path d="M407.573 393.864C403.536 396.32 399.499 398.777 395.813 401.584C392.127 404.392 388.441 407.375 384.93 410.533C376.329 418.253 372.292 424.57 372.643 424.044C379.664 415.621 393.005 405.269 396.691 402.462C400.377 399.83 403.887 396.847 407.573 393.864C407.749 393.864 407.573 393.688 407.573 393.864Z" fill="#263238"/>
<path d="M418.105 407.199C413.19 410.533 408.1 413.691 403.185 417.376C398.446 420.885 394.233 424.746 389.67 428.781C389.318 429.132 389.67 429.132 390.021 428.957C394.76 425.272 399.324 422.114 404.063 418.429C408.626 414.744 413.19 410.884 418.105 407.199Z" fill="#263238"/>
<path d="M428.988 417.025C421.089 421.763 414.243 428.079 407.573 434.396C407.222 434.747 407.573 434.747 407.924 434.572C414.945 428.606 420.387 424.044 429.163 417.552C429.339 417.201 429.163 417.025 428.988 417.025Z" fill="#263238"/>
<path d="M614.344 344.559L560.984 343.155C560.984 343.155 557.473 317.537 558 299.815C558.351 288.235 559.755 277.356 561.159 276.829C563.09 276.128 570.813 280.339 577.834 288.235C602.759 315.958 614.344 344.559 614.344 344.559Z" fill="#8366DA"/>
<path d="M563.09 334.733C571.34 334.206 593.632 333.68 608.2 335.259C608.2 335.259 608.376 335.61 608.2 335.61C595.914 336.136 571.34 335.61 563.09 335.259C562.914 335.259 562.914 334.733 563.09 334.733Z" fill="#263238"/>
<path d="M556.947 317.362C557.473 318.59 557.824 319.818 558.175 321.222C558.175 321.397 558.351 321.573 558.351 321.748C558.175 318.414 558 315.256 558 311.922C558 311.747 558.175 311.747 558.175 311.922C558.877 317.011 561.861 342.453 561.861 342.453C562.388 342.453 565.547 342.979 565.723 342.979C565.898 342.979 565.898 343.33 565.723 343.33C565.547 343.33 561.686 343.33 560.633 343.155C560.282 343.155 559.931 338.066 559.579 335.785C559.228 333.153 559.053 330.346 558.877 327.714C558.702 326.486 558.702 325.258 558.526 324.029C558.175 322.976 558 321.924 557.824 321.046C557.473 319.818 557.122 318.59 556.771 317.362C556.596 317.362 556.771 317.186 556.947 317.362Z" fill="#263238"/>
<path d="M574.675 284.901C574.675 284.901 544.66 301.921 532.022 294.551C525.527 290.691 526.58 273.496 526.58 273.496C526.58 273.496 540.272 268.934 555.718 273.32C567.127 276.654 574.675 284.901 574.675 284.901Z" fill="#AC6359"/>
<path d="M566.776 261.74C536.725 261.74 512.363 236.444 512.363 205.24C512.363 174.036 536.725 148.741 566.776 148.741C596.828 148.741 621.189 174.036 621.189 205.24C621.189 236.444 596.828 261.74 566.776 261.74Z" fill="#263238"/>
<path d="M592.754 245.772C592.754 249.983 596.089 253.317 600.302 253.317C604.514 253.317 607.849 249.983 607.849 245.772C607.849 241.561 604.514 238.227 600.302 238.227C596.089 238.227 592.754 241.737 592.754 245.772Z" fill="#263238"/>
<path d="M513.416 234.718C513.416 238.929 516.751 242.263 520.964 242.263C525.176 242.263 528.511 238.929 528.511 234.718C528.511 230.507 525.176 227.173 520.964 227.173C516.751 227.173 513.416 230.507 513.416 234.718Z" fill="#263238"/>
<path d="M505.868 199.625C505.868 203.836 509.203 207.17 513.416 207.17C517.629 207.17 520.964 203.836 520.964 199.625C520.964 195.414 517.629 192.08 513.416 192.08C509.203 192.256 505.868 195.59 505.868 199.625Z" fill="#263238"/>
<path d="M609.956 192.958C609.956 197.169 613.291 200.503 617.503 200.503C621.716 200.503 625.051 197.169 625.051 192.958C625.051 188.746 621.716 185.413 617.503 185.413C613.291 185.413 609.956 188.746 609.956 192.958Z" fill="#263238"/>
<path d="M600.302 172.779C600.302 176.99 603.637 180.324 607.849 180.324C612.062 180.324 615.397 176.99 615.397 172.779C615.397 168.568 612.062 165.234 607.849 165.234C603.637 165.234 600.302 168.568 600.302 172.779Z" fill="#263238"/>
<path d="M591.174 164.357C591.174 168.568 594.509 171.902 598.722 171.902C602.935 171.902 606.27 168.568 606.27 164.357C606.27 160.146 602.935 156.812 598.722 156.812C594.509 156.812 591.174 160.146 591.174 164.357Z" fill="#263238"/>
<path d="M582.222 154.882C582.222 159.093 585.557 162.427 589.77 162.427C593.983 162.427 597.318 159.093 597.318 154.882C597.318 150.671 593.983 147.337 589.77 147.337C585.557 147.513 582.222 150.846 582.222 154.882Z" fill="#263238"/>
<path d="M570.287 153.654C570.287 157.865 573.622 161.199 577.834 161.199C582.047 161.199 585.382 157.865 585.382 153.654C585.382 149.442 582.047 146.109 577.834 146.109C573.622 146.109 570.287 149.442 570.287 153.654Z" fill="#263238"/>
<path d="M535.532 153.654C535.532 157.865 538.867 161.199 543.08 161.199C547.293 161.199 550.628 157.865 550.628 153.654C550.628 149.442 547.293 146.109 543.08 146.109C538.867 146.109 535.532 149.442 535.532 153.654Z" fill="#263238"/>
<path d="M519.033 168.393C519.033 172.604 522.368 175.938 526.58 175.938C530.793 175.938 534.128 172.604 534.128 168.393C534.128 164.181 530.793 160.848 526.58 160.848C522.368 160.848 519.033 164.181 519.033 168.393Z" fill="#263238"/>
<path d="M613.642 233.314C609.473 233.314 606.094 229.936 606.094 225.769C606.094 221.602 609.473 218.224 613.642 218.224C617.81 218.224 621.189 221.602 621.189 225.769C621.189 229.936 617.81 233.314 613.642 233.314Z" fill="#263238"/>
<path d="M573.095 255.949C573.095 260.16 576.43 263.494 580.643 263.494C584.855 263.494 588.19 260.16 588.19 255.949C588.19 251.738 584.855 248.404 580.643 248.404C576.43 248.404 573.095 251.738 573.095 255.949Z" fill="#263238"/>
<path d="M562.388 255.949C562.388 260.16 565.723 263.494 569.936 263.494C574.148 263.494 577.483 260.16 577.483 255.949C577.483 251.738 574.148 248.404 569.936 248.404C565.723 248.404 562.388 251.913 562.388 255.949Z" fill="#263238"/>
<path d="M609.956 214.891C609.956 219.102 613.291 222.436 617.503 222.436C621.716 222.436 625.051 219.102 625.051 214.891C625.051 210.68 621.716 207.346 617.503 207.346C613.291 207.346 609.956 210.68 609.956 214.891Z" fill="#263238"/>
<path d="M608.551 243.667C604.771 243.667 601.706 240.603 601.706 236.824C601.706 233.044 604.771 229.98 608.551 229.98C612.332 229.98 615.397 233.044 615.397 236.824C615.397 240.603 612.332 243.667 608.551 243.667Z" fill="#263238"/>
<path d="M559.228 149.969C559.228 153.654 562.212 156.812 566.074 156.812C569.76 156.812 572.92 153.829 572.92 149.969C572.92 146.284 569.936 143.126 566.074 143.126C562.388 143.126 559.228 146.284 559.228 149.969Z" fill="#263238"/>
<path d="M610.658 203.836C610.658 207.521 613.642 210.679 617.503 210.679C621.189 210.679 624.349 207.697 624.349 203.836C624.349 200.152 621.365 196.993 617.503 196.993C613.642 197.169 610.658 200.152 610.658 203.836Z" fill="#263238"/>
<path d="M613.642 189.448C609.861 189.448 606.796 186.385 606.796 182.605C606.796 178.826 609.861 175.762 613.642 175.762C617.422 175.762 620.487 178.826 620.487 182.605C620.487 186.385 617.422 189.448 613.642 189.448Z" fill="#263238"/>
<path d="M555.016 157.689C551.235 157.689 548.17 154.626 548.17 150.846C548.17 147.067 551.235 144.003 555.016 144.003C558.796 144.003 561.861 147.067 561.861 150.846C561.861 154.626 558.796 157.689 555.016 157.689Z" fill="#263238"/>
<path d="M583.451 251.738C583.451 255.423 586.435 258.581 590.297 258.581C593.983 258.581 597.142 255.598 597.142 251.738C597.142 248.053 594.158 244.895 590.297 244.895C586.611 244.895 583.451 247.878 583.451 251.738Z" fill="#263238"/>
<path d="M552.558 258.581C552.558 262.266 555.542 265.424 559.404 265.424C563.09 265.424 566.25 262.441 566.25 258.581C566.25 254.896 563.266 251.738 559.404 251.738C555.542 251.738 552.558 254.721 552.558 258.581Z" fill="#263238"/>
<path d="M547.117 262.792C543.336 262.792 540.272 259.729 540.272 255.949C540.272 252.17 543.336 249.106 547.117 249.106C550.898 249.106 553.963 252.17 553.963 255.949C553.963 259.729 550.898 262.792 547.117 262.792Z" fill="#263238"/>
<path d="M537.463 255.949C533.682 255.949 530.618 252.885 530.618 249.106C530.618 245.327 533.682 242.263 537.463 242.263C541.244 242.263 544.309 245.327 544.309 249.106C544.309 252.885 541.244 255.949 537.463 255.949Z" fill="#263238"/>
<path d="M519.735 244.369C519.735 248.053 522.719 251.212 526.58 251.212C530.267 251.212 533.426 248.229 533.426 244.369C533.426 240.684 530.442 237.526 526.58 237.526C522.719 237.701 519.735 240.684 519.735 244.369Z" fill="#263238"/>
<path d="M507.624 225.068C507.624 228.752 510.608 231.911 514.469 231.911C518.155 231.911 521.315 228.928 521.315 225.068C521.315 221.383 518.331 218.224 514.469 218.224C510.608 218.224 507.624 221.207 507.624 225.068Z" fill="#263238"/>
<path d="M507.624 212.434C507.624 216.119 510.608 219.277 514.469 219.277C518.155 219.277 521.315 216.294 521.315 212.434C521.315 208.749 518.331 205.591 514.469 205.591C510.608 205.767 507.624 208.749 507.624 212.434Z" fill="#263238"/>
<path d="M526.58 158.391C526.58 162.076 529.564 165.234 533.426 165.234C537.112 165.234 540.272 162.251 540.272 158.391C540.272 154.531 537.288 151.548 533.426 151.548C529.564 151.724 526.58 154.706 526.58 158.391Z" fill="#263238"/>
<path d="M517.453 183.834C513.672 183.834 510.608 180.77 510.608 176.99C510.608 173.211 513.672 170.147 517.453 170.147C521.234 170.147 524.299 173.211 524.299 176.99C524.299 180.77 521.234 183.834 517.453 183.834Z" fill="#263238"/>
<path d="M516.049 194.712C512.268 194.712 509.203 191.648 509.203 187.869C509.203 184.09 512.268 181.026 516.049 181.026C519.83 181.026 522.894 184.09 522.894 187.869C522.894 191.648 519.83 194.712 516.049 194.712Z" fill="#263238"/>
<path d="M559.404 277.882C558.351 280.163 543.607 292.797 533.075 289.814C529.564 288.761 534.128 269.811 534.128 269.811V268.407L534.304 247.702L560.808 238.227L564.67 236.999C564.67 236.999 564.319 242.614 563.617 249.633C563.617 249.983 563.617 250.334 563.617 250.685C563.617 251.036 563.617 251.387 563.617 251.914C563.617 252.966 563.441 254.019 563.441 255.072C563.441 255.949 563.266 256.651 563.266 257.528C563.266 258.406 563.09 259.283 562.915 260.16C561.686 268.232 559.931 276.829 559.404 277.882Z" fill="#AC6359"/>
<path d="M563.617 249.457C554.314 263.845 540.447 267.354 534.128 268.232L534.304 247.527L560.808 238.052L564.67 236.824C564.67 236.824 564.319 242.439 563.617 249.457Z" fill="#263238"/>
<path d="M511.661 207.697C498.847 241.737 517.804 253.142 525.176 255.949C531.846 258.406 554.84 266.126 571.164 233.665C587.488 201.205 575.728 184.36 560.633 177.868C545.713 171.376 524.474 173.657 511.661 207.697Z" fill="#AC6359"/>
<path d="M519.735 205.065C520.613 205.24 521.315 205.24 522.192 205.24C523.07 205.24 523.948 205.416 524.825 205.065C525.352 204.889 525.527 204.012 525.352 203.486C524.825 202.433 523.772 201.906 522.543 201.731C521.315 201.555 520.262 201.731 519.208 202.433C518.155 203.31 518.682 204.889 519.735 205.065Z" fill="#263238"/>
<path d="M543.607 209.451C542.904 209.1 542.202 208.574 541.5 208.223C540.623 207.697 539.921 207.521 539.569 206.468C539.394 205.942 539.569 205.24 540.096 204.889C541.149 204.187 542.378 204.538 543.256 205.065C544.309 205.591 545.011 206.468 545.537 207.521C546.064 208.925 544.66 209.978 543.607 209.451Z" fill="#263238"/>
<path d="M536.234 216.645C536.234 216.645 536.41 216.821 536.41 216.996C535.532 219.277 534.83 222.085 536.761 223.664V223.839C534.128 222.436 535.006 218.751 536.234 216.645Z" fill="#263238"/>
<path d="M539.218 215.066C543.08 216.119 540.798 223.664 537.112 222.787C533.602 221.734 535.883 214.189 539.218 215.066Z" fill="#263238"/>
<path d="M540.623 215.943C541.149 216.645 541.5 217.523 542.378 217.874C543.256 218.224 544.309 217.698 545.011 216.996C545.011 216.996 545.186 216.996 545.186 217.172C544.835 218.575 543.782 219.979 542.027 219.804C540.447 219.628 539.921 218.049 539.921 216.294C540.096 215.943 540.447 215.593 540.623 215.943Z" fill="#263238"/>
<path d="M522.894 211.557C522.894 211.381 522.719 211.557 522.719 211.732C522.017 214.189 520.964 216.821 518.682 216.996C518.682 216.996 518.506 217.172 518.682 217.172C521.315 217.523 522.719 214.013 522.894 211.557Z" fill="#263238"/>
<path d="M521.49 208.398C517.804 206.995 515.171 214.54 518.682 215.943C522.017 217.172 524.65 209.627 521.49 208.398Z" fill="#263238"/>
<path d="M519.735 208.399C519.033 208.574 518.155 209.1 517.453 208.925C516.575 208.749 516.224 207.697 516.049 206.644C516.049 206.468 515.873 206.644 515.873 206.644C515.347 208.048 515.347 209.802 516.575 210.504C517.804 211.206 519.033 210.329 519.91 208.925C520.086 208.925 520.086 208.399 519.735 208.399Z" fill="#263238"/>
<path d="M530.793 234.894C530.091 235.245 529.389 235.946 528.336 235.771C527.458 235.596 526.58 235.069 525.878 234.543C525.878 234.543 525.703 234.543 525.703 234.718C526.054 235.771 527.283 236.648 528.336 236.824C529.389 236.824 530.267 236.122 530.793 235.245C530.969 235.069 530.793 234.894 530.793 234.894Z" fill="#263238"/>
<path d="M523.597 223.313C523.597 223.313 521.841 227.173 521.315 228.928C521.315 229.103 527.107 229.63 531.495 231.56C531.671 231.56 532.022 231.384 531.495 231.033C528.862 228.928 523.07 228.05 523.07 228.05C523.07 227.7 526.054 222.436 525.703 222.26C524.825 221.909 522.894 221.909 521.666 221.909C524.825 214.715 529.038 208.223 532.022 201.029C532.197 200.854 531.846 200.503 531.671 200.854C526.756 207.346 522.894 215.592 519.559 222.787C519.033 223.488 522.894 223.488 523.597 223.313Z" fill="#263238"/>
<path d="M568.356 233.314C561.686 234.543 566.601 224.541 566.601 224.541C566.601 224.541 561.861 220.155 566.25 213.312C566.25 213.312 558.351 213.838 559.755 203.31C559.755 203.31 553.436 201.38 555.542 194.361C555.542 194.361 545.713 197.344 543.958 188.396C543.958 188.396 536.059 194.01 532.548 186.115C532.548 186.115 529.038 190.326 524.299 187.694C524.299 187.694 522.368 192.607 518.331 193.309C518.331 193.309 536.761 159.093 566.952 178.921C595.036 197.344 576.255 231.911 568.356 233.314Z" fill="#263238"/>
<path d="M564.67 234.192C564.67 234.192 575.377 225.419 579.59 229.454C583.802 233.49 573.622 247.878 567.127 248.404C560.633 248.931 560.106 242.965 560.106 242.965L564.67 234.192Z" fill="#AC6359"/>
<path d="M576.606 233.49C576.606 233.49 576.606 233.665 576.606 233.49C572.042 234.192 568.882 237.35 566.25 240.859C567.829 239.631 569.76 239.28 571.34 241.386C571.34 241.561 571.34 241.561 571.164 241.561C569.585 240.684 568.356 240.684 566.776 241.737C565.723 242.439 564.845 243.491 563.968 244.369C563.617 244.72 563.09 244.369 563.266 243.842C564.67 238.578 570.813 232.437 576.606 233.49Z" fill="#263238"/>
<path d="M589.244 209.1L590.823 213.311L576.606 221.734L573.095 212.259L589.244 209.1ZM577.834 217.874L587.664 212.785L587.313 211.732L576.606 214.54L577.834 217.874Z" fill="#8366DA"/>
<path d="M588.19 202.959L588.015 207.521L571.515 209.978L571.866 199.801L588.19 202.959ZM574.324 206.644L585.382 205.591V204.538L574.324 202.959V206.644Z" fill="#8366DA"/>
<path d="M340.522 581.786H633.652V601.613H340.522V581.786Z" fill="#455A64"/>
<path d="M573.446 601.438L580.818 619.335L616.626 706.891H625.753L601.706 619.335L596.791 601.438H573.446Z" fill="#455A64"/>
<path d="M596.791 601.438H573.446L580.818 619.335H601.706L596.791 601.438Z" fill="#263238"/>
<path d="M348.421 706.891H357.548L393.531 619.335L400.728 601.438H377.558L372.643 619.335L348.421 706.891Z" fill="#455A64"/>
<path d="M372.643 619.335H393.531L400.728 601.438H377.558L372.643 619.335Z" fill="#263238"/>
<path d="M547.819 577.224H577.132V581.786H547.819V577.224Z" fill="#8366DA"/>
<path opacity="0.1" d="M547.819 577.224H577.132V580.207H547.819V577.224Z" fill="black"/>
<path d="M611.886 564.941C608.376 569.854 602.232 573.188 595.387 571.96C594.334 571.784 593.456 571.433 592.403 571.083C590.999 570.556 589.595 569.854 588.19 568.977L591.876 563.538C592.579 564.064 593.281 564.415 593.983 564.766C601.004 567.924 605.392 562.485 606.27 561.257C610.307 555.642 611.711 542.833 607.674 537.744C607.323 537.393 606.27 536.867 601.53 537.744C600.653 537.92 599.6 538.095 598.546 538.446C597.318 538.797 596.616 538.973 595.914 538.973L595.738 535.639L595.387 532.305C595.738 532.305 596.089 532.129 596.791 531.954C598.546 531.428 601.004 530.901 603.461 530.55C606.972 530.199 610.482 530.55 612.764 533.358C619.61 541.429 616.977 557.747 611.886 564.941Z" fill="#8366DA"/>
<path opacity="0.1" d="M592.052 563.362C592.754 563.888 593.456 564.239 594.158 564.59L592.403 571.082C590.999 570.556 589.595 569.854 588.19 568.977L592.052 563.362Z" fill="black"/>
<path opacity="0.1" d="M603.637 530.55L601.706 537.569C600.828 537.744 599.775 537.92 598.722 538.271C597.493 538.622 596.791 538.797 596.089 538.797L595.914 535.463L595.562 532.13C595.914 532.13 596.265 531.954 596.967 531.779C598.722 531.603 601.179 530.901 603.637 530.55Z" fill="black"/>
<path d="M523.772 521.953C523.772 521.953 527.283 551.781 533.25 564.239C539.394 576.697 547.819 578.101 553.085 578.101C558.351 578.101 557.824 578.101 562.563 578.101C567.303 578.101 566.776 578.101 572.042 578.101C577.308 578.101 585.733 576.697 591.876 564.239C598.02 551.781 601.355 521.953 601.355 521.953H523.772Z" fill="#8366DA"/>
<path opacity="0.1" d="M527.458 544.938C527.809 546.166 527.985 547.395 528.336 548.798H596.791C597.142 547.57 597.318 546.342 597.669 544.938H527.458Z" fill="black"/>
<path opacity="0.1" d="M529.213 552.483C529.915 555.291 530.793 557.923 531.671 560.379H593.456C594.334 557.923 595.036 555.291 595.914 552.483H529.213Z" fill="black"/>
<path d="M448.296 147.863C447.593 155.759 453.386 162.602 461.285 163.304C469.183 164.006 476.029 158.216 476.731 150.32C477.433 142.424 471.641 135.581 463.742 134.879C455.843 134.177 448.998 139.967 448.296 147.863Z" fill="white"/>
<path d="M448.296 147.863C447.945 151.548 449.173 155.408 451.455 158.391C453.737 161.374 457.423 163.304 461.285 163.831C465.146 164.357 469.183 163.129 472.167 160.672C475.327 158.216 477.257 154.355 477.609 150.495C477.96 146.46 476.555 142.424 474.098 139.441C471.465 136.458 467.779 134.704 463.917 134.528C460.056 134.353 456.194 135.581 453.386 138.213C450.402 140.494 448.647 144.179 448.296 147.863ZM448.296 147.863C448.647 144.179 450.577 140.494 453.386 138.213C456.194 135.932 460.056 134.879 463.742 135.23C467.428 135.581 470.763 137.511 472.869 140.318C475.151 143.126 476.204 146.635 475.853 150.144C475.502 153.654 473.922 156.987 471.29 159.268C468.657 161.549 464.971 162.953 461.46 162.778C457.774 162.602 454.263 160.848 451.806 158.04C449.173 155.408 447.945 151.548 448.296 147.863Z" fill="#263238"/>
<path d="M479.188 174.183C478.837 178.57 481.997 182.43 486.385 182.781C490.773 183.132 494.635 179.973 494.986 175.587C495.337 171.2 492.177 167.34 487.789 166.989C483.401 166.463 479.539 169.796 479.188 174.183Z" fill="white"/>
<path d="M479.188 174.183C479.013 176.289 479.715 178.394 480.944 179.973C482.172 181.728 484.279 182.781 486.385 183.132C488.491 183.483 490.949 182.781 492.704 181.377C494.459 179.973 495.688 177.868 495.863 175.411C496.039 173.13 495.337 170.674 493.757 169.095C492.177 167.34 490.071 166.463 487.789 166.287C485.507 166.112 483.401 166.989 481.821 168.393C480.417 170.147 479.364 172.077 479.188 174.183ZM479.188 174.183C479.364 172.077 480.417 170.147 481.997 168.919C483.576 167.691 485.683 167.164 487.614 167.515C491.651 168.042 494.459 171.902 493.933 175.587C493.757 179.271 490.246 182.605 486.209 182.43C484.279 182.43 482.172 181.553 480.944 179.973C479.715 178.394 479.013 176.289 479.188 174.183Z" fill="#263238"/>
<path d="M341.4 81.3626C338.591 104.173 354.915 125.053 377.734 127.861C385.281 128.738 392.478 127.685 398.973 124.878C404.414 132.072 412.839 137.16 422.493 138.388C435.307 139.968 447.242 134.353 454.615 124.878C456.194 125.404 457.774 125.579 459.354 125.93C474.976 127.861 489.018 116.806 490.949 101.19C491.826 93.996 489.895 86.9774 486.034 81.538C490.598 75.7477 493.757 68.5537 494.635 60.8333C497.443 38.023 481.119 17.1427 458.301 14.3353C447.945 13.1071 437.94 15.739 429.865 21.1784C424.424 14.3353 416.174 9.42233 406.696 8.36955C390.372 6.43944 375.276 16.09 369.66 30.8289C368.255 30.3025 366.676 29.9516 365.096 29.7762C352.458 28.197 341.224 37.1456 339.644 49.779C338.767 56.6221 341.049 63.2898 345.437 68.0273C343.506 71.8875 342.102 76.4496 341.4 81.3626Z" fill="white"/>
<path d="M395.462 80.3098L396.866 86.6265C397.393 89.4339 399.85 91.0131 402.659 90.3112C405.116 89.7848 407.047 87.3283 406.345 84.5209L404.238 74.344C404.238 74.1685 404.063 74.344 404.063 74.1685C404.063 73.9931 404.063 73.9931 404.063 73.9931C403.536 71.5366 400.903 69.7819 398.27 70.3083C392.127 71.5366 386.159 67.6764 384.93 61.7106C383.702 55.5693 387.563 49.779 393.707 48.5508C397.744 47.6735 401.605 49.0772 404.238 51.8846C406.169 53.9902 409.153 54.1656 411.259 52.2355C413.19 50.4809 413.366 47.498 411.61 45.3924C406.871 40.1285 399.324 37.3211 391.951 38.9003C380.718 41.1813 373.346 52.2355 375.627 63.6407C377.558 73.4667 385.984 80.1343 395.462 80.3098ZM399.85 101.541L400.201 103.296C400.728 106.103 403.185 107.682 405.994 106.98C408.451 106.454 410.382 103.997 409.68 101.19L409.329 99.4353C408.802 96.8034 406.169 95.2242 403.536 95.7506C400.903 96.4525 399.324 98.909 399.85 101.541Z" fill="#8366DA"/>
<path d="M446.014 67.5009L446.891 61.0087C447.242 58.2013 445.487 55.9203 442.679 55.5693C440.046 55.2184 437.588 56.973 437.237 59.7805L436.009 69.9574C436.009 70.1328 436.009 70.1328 436.009 70.1328C435.833 70.1328 435.833 70.1328 435.833 70.3083C435.482 72.9403 437.588 75.3968 440.046 75.7477C446.189 76.4495 450.753 82.0644 449.875 88.2056C449.173 94.3469 443.556 98.558 437.237 97.8562C433.2 97.3298 429.865 94.6978 428.461 91.1885C427.408 88.732 424.599 87.5038 421.967 88.5566C419.509 89.6093 418.456 92.4168 419.509 94.8733C422.318 101.365 428.461 106.454 436.009 107.331C447.418 108.735 457.95 100.664 459.354 89.2584C460.758 79.7834 454.966 70.8347 446.014 67.5009ZM448.647 45.9188L448.822 44.1642C449.173 41.3568 447.418 39.0757 444.609 38.7248C441.977 38.3739 439.519 40.1285 439.168 42.9359L438.993 44.6906C438.642 47.3225 440.748 49.779 443.205 50.13C446.014 50.4809 448.296 48.5508 448.647 45.9188Z" fill="#8366DA"/>
</svg>
