<svg width="330" height="51" viewBox="0 0 330 51" fill="none" xmlns="http://www.w3.org/2000/svg">
<path d="M7.41 50.57C11.5024 50.57 14.82 47.2524 14.82 43.16C14.82 39.0676 11.5024 35.75 7.41 35.75C3.31757 35.75 0 39.0676 0 43.16C0 47.2524 3.31757 50.57 7.41 50.57Z" fill="url(#paint0_linear)"/>
<path d="M26.57 48.71C28.1696 49.8004 30.0641 50.3761 32 50.36H32.1C33.5113 50.4057 34.8988 49.9877 36.05 49.17C36.6527 48.7597 37.1456 48.2078 37.4856 47.5628C37.8255 46.9177 38.0022 46.1992 38 45.47C38.0344 44.222 37.5949 43.0072 36.77 42.07C36.3478 41.5928 35.8267 41.2132 35.243 40.9577C34.6593 40.7021 34.027 40.5766 33.39 40.59H32.07C32.0155 40.5164 31.9654 40.4396 31.92 40.36C31.5723 39.6773 31.4102 38.9151 31.45 38.15V8.52001C31.4799 7.85991 31.3756 7.2006 31.1436 6.5819C30.9116 5.9632 30.5566 5.39794 30.1 4.92025C29.6435 4.44256 29.0948 4.06237 28.4873 3.80261C27.8797 3.54286 27.2258 3.40894 26.565 3.40894C25.9042 3.40894 25.2503 3.54286 24.6427 3.80261C24.0351 4.06237 23.4865 4.44256 23.0299 4.92025C22.5734 5.39794 22.2184 5.9632 21.9864 6.5819C21.7543 7.2006 21.6501 7.85991 21.68 8.52001V38.15C21.6577 40.2332 22.0733 42.2978 22.9 44.21C23.6764 46.0249 24.9483 47.5844 26.57 48.71Z" fill="#3E3E3E"/>
<path d="M52.66 48.3C55.1323 49.8138 57.9811 50.6005 60.88 50.57C63.2312 50.5825 65.5551 50.0664 67.68 49.06C68.4015 48.711 69.0967 48.3099 69.76 47.86C70.1824 48.6445 70.8127 49.2975 71.5818 49.7473C72.351 50.1972 73.2291 50.4264 74.12 50.41C74.7712 50.4208 75.418 50.3004 76.0217 50.0558C76.6254 49.8113 77.1737 49.4477 77.6338 48.9866C78.0939 48.5256 78.4564 47.9766 78.6997 47.3724C78.943 46.7682 79.0622 46.1212 79.05 45.47V33.37C79.0835 30.3003 78.3 27.277 76.78 24.61C75.3167 22.0288 73.1944 19.8824 70.63 18.39H70.57C67.9657 16.8855 65.0076 16.102 62 16.12C58.9466 16.0901 55.9403 16.8736 53.29 18.39C50.6996 19.8699 48.5574 22.0224 47.09 24.62C45.5931 27.2914 44.8209 30.3079 44.85 33.37C44.8169 36.3926 45.5278 39.3769 46.92 42.06C48.2299 44.6235 50.2145 46.781 52.66 48.3ZM55.48 29.2C56.1041 28.028 57.0336 27.0467 58.17 26.36C59.3213 25.6917 60.6288 25.3398 61.96 25.3398C63.2912 25.3398 64.5987 25.6917 65.75 26.36C66.8768 27.0416 67.7937 28.0209 68.4 29.19C69.0757 30.4785 69.4194 31.9152 69.4 33.37C69.4186 34.8151 69.0748 36.2419 68.4 37.52C67.7907 38.6758 66.8781 39.6438 65.76 40.32C64.6087 40.9882 63.3012 41.3402 61.97 41.3402C60.6388 41.3402 59.3313 40.9882 58.18 40.32C57.0461 39.6345 56.1171 38.6571 55.49 37.49C54.8069 36.2222 54.4625 34.7997 54.49 33.36C54.4645 31.9121 54.805 30.4812 55.48 29.2Z" fill="#3E3E3E"/>
<path d="M90.72 11.4999C91.476 11.5085 92.2259 11.3631 92.9239 11.0726C93.6219 10.782 94.2534 10.3524 94.78 9.80992C95.3257 9.28524 95.7581 8.65428 96.0505 7.95599C96.3429 7.2577 96.4891 6.5069 96.48 5.74992C96.4885 4.99302 96.3421 4.24239 96.0497 3.54419C95.7573 2.84598 95.3253 2.21495 94.78 1.68992C94.2492 1.15446 93.6175 0.729434 92.9215 0.439384C92.2256 0.149335 91.479 0 90.725 0C89.971 0 89.2245 0.149335 88.5285 0.439384C87.8325 0.729434 87.2009 1.15446 86.67 1.68992C86.1302 2.21752 85.7037 2.84969 85.4165 3.54778C85.1294 4.24586 84.9877 4.99518 85 5.74992C84.9909 6.5069 85.1371 7.2577 85.4295 7.95599C85.7219 8.65428 86.1543 9.28524 86.7 9.80992C87.2216 10.348 87.8466 10.7751 88.5374 11.0655C89.2282 11.3559 89.9706 11.5037 90.72 11.4999Z" fill="#26bb7d"/>
<path d="M90.72 16.3301C89.4247 16.3098 88.1739 16.8022 87.24 17.7001C86.7663 18.1638 86.3931 18.7201 86.1436 19.3343C85.8941 19.9484 85.7738 20.6074 85.79 21.2701V45.4201C85.8057 46.3979 86.1077 47.3496 86.6588 48.1575C87.2098 48.9654 87.9857 49.5939 88.8903 49.9653C89.7949 50.3368 90.7886 50.4348 91.7483 50.2472C92.7081 50.0597 93.5918 49.5948 94.29 48.9101C95.1904 47.9738 95.683 46.7189 95.66 45.4201V21.2701C95.6788 20.6168 95.5653 19.9665 95.3265 19.3582C95.0876 18.7499 94.7283 18.1961 94.27 17.7301C93.8013 17.2721 93.2459 16.9123 92.6363 16.6719C92.0267 16.4315 91.3752 16.3153 90.72 16.3301Z" fill="#3E3E3E"/>
<path d="M119.59 31.5999L128 24.1199C128.475 23.7178 128.864 23.2228 129.141 22.6653C129.418 22.1077 129.579 21.4994 129.613 20.8776C129.646 20.2558 129.553 19.6336 129.337 19.0494C129.122 18.4651 128.789 17.931 128.36 17.4799C127.937 16.9761 127.407 16.5729 126.808 16.2996C126.21 16.0263 125.558 15.8898 124.9 15.8999C123.715 15.8956 122.576 16.3592 121.73 17.1899L112.2 25.6999V8.46989C112.2 7.1889 111.691 5.96037 110.785 5.05457C109.88 4.14877 108.651 3.63989 107.37 3.63989C106.089 3.63989 104.86 4.14877 103.955 5.05457C103.049 5.96037 102.54 7.1889 102.54 8.46989V45.5299C102.54 46.8109 103.049 48.0394 103.955 48.9452C104.86 49.851 106.089 50.3599 107.37 50.3599C108.651 50.3599 109.88 49.851 110.785 48.9452C111.691 48.0394 112.2 46.8109 112.2 45.5299V38.2099L112.48 37.9599L121.35 48.9599C121.777 49.5252 122.33 49.9825 122.966 50.2951C123.602 50.6077 124.302 50.7669 125.01 50.7599C126.145 50.756 127.243 50.3524 128.11 49.6199C128.66 49.1801 129.103 48.6215 129.406 47.9858C129.709 47.3502 129.865 46.6541 129.86 45.9499C129.872 44.8474 129.477 43.7792 128.75 42.9499L119.59 31.5999Z" fill="#3E3E3E"/>
<path d="M168.7 24.6101C167.23 22.0305 165.105 19.8849 162.54 18.3901C159.92 16.8923 156.948 16.1192 153.93 16.1501C150.877 16.1202 147.87 16.9037 145.22 18.4201C142.625 19.8873 140.476 22.0297 139 24.6201C137.506 27.2923 136.737 30.3088 136.77 33.3701C136.732 36.3932 137.443 39.3787 138.84 42.0601C140.16 44.626 142.155 46.7833 144.61 48.3001C147.082 49.8139 149.931 50.6006 152.83 50.5701C155.181 50.5836 157.505 50.0675 159.63 49.0601C160.353 48.7133 161.048 48.3121 161.71 47.8601C161.933 48.2759 162.216 48.6566 162.55 48.9901C163.242 49.6884 164.126 50.1647 165.089 50.3578C166.053 50.5509 167.053 50.4522 167.96 50.0743C168.867 49.6963 169.641 49.0563 170.183 48.2362C170.724 47.416 171.009 46.4529 171 45.4701V33.3701C171.02 30.2983 170.226 27.276 168.7 24.6101ZM160.32 37.5201C159.714 38.6752 158.805 39.6433 157.69 40.3201C156.541 40.9884 155.235 41.3405 153.905 41.3405C152.575 41.3405 151.269 40.9884 150.12 40.3201C148.981 39.6379 148.048 38.6599 147.42 37.4901C146.741 36.2207 146.397 34.7993 146.42 33.3601C146.396 31.9079 146.74 30.4733 147.42 29.1901C148.044 28.0181 148.974 27.0367 150.11 26.3501C150.959 25.8328 151.906 25.495 152.891 25.3577C153.876 25.2203 154.879 25.2863 155.837 25.5515C156.796 25.8166 157.69 26.2754 158.464 26.8995C159.239 27.5236 159.877 28.2997 160.34 29.1801C161.011 30.4702 161.355 31.9058 161.34 33.3601C161.359 34.8109 161.008 36.2426 160.32 37.5201Z" fill="#3E3E3E"/>
<path d="M194.69 25.23C195.655 25.2077 196.614 25.3812 197.51 25.74C198.345 26.1129 199.091 26.6582 199.7 27.34C200.165 27.8696 200.739 28.2923 201.383 28.5788C202.027 28.8654 202.725 29.0091 203.43 29C204.313 29.0153 205.178 28.7491 205.9 28.24C206.552 27.8428 207.091 27.2848 207.466 26.6194C207.841 25.9541 208.038 25.2036 208.04 24.44C208.05 23.4075 207.68 22.4075 207 21.63C205.501 19.8295 203.616 18.3887 201.486 17.4143C199.355 16.4398 197.033 15.9565 194.69 16C191.648 15.9575 188.649 16.7236 186 18.22C183.458 19.6921 181.38 21.8468 180 24.44C178.563 27.1554 177.83 30.1881 177.87 33.26C177.814 36.3083 178.548 39.3192 180 42C181.441 44.604 183.572 46.7598 186.16 48.23C188.857 49.7435 191.907 50.5163 195 50.47C199.161 50.5782 203.2 49.0609 206.26 46.24L206.31 46.19C206.714 45.8013 207.035 45.3354 207.255 44.82C207.475 44.3046 207.589 43.7503 207.59 43.19C207.581 42.4916 207.414 41.8042 207.103 41.1792C206.791 40.5541 206.342 40.0075 205.79 39.58L205.69 39.5C204.914 38.9013 203.96 38.5777 202.98 38.58C201.785 38.6073 200.63 39.0213 199.69 39.76L199.58 39.84C198.271 40.8426 196.645 41.3396 195 41.24C193.63 41.2697 192.278 40.9239 191.09 40.24C189.979 39.5856 189.077 38.6282 188.49 37.48C187.811 36.1785 187.467 34.728 187.49 33.26C187.358 31.1012 188.076 28.9764 189.49 27.34C190.153 26.6333 190.961 26.0786 191.858 25.7144C192.756 25.3501 193.722 25.1848 194.69 25.23Z" fill="#3E3E3E"/>
<path d="M240.44 18.2201C237.769 16.7254 234.751 15.9598 231.69 16.0001C228.606 15.956 225.563 16.7141 222.86 18.2001C220.271 19.647 218.14 21.7917 216.71 24.3901C215.238 27.1081 214.491 30.1594 214.54 33.2501C214.497 36.3273 215.245 39.364 216.71 42.0701C218.143 44.6635 220.274 46.8042 222.86 48.2501C225.572 49.7006 228.6 50.4595 231.675 50.4595C234.75 50.4595 237.778 49.7006 240.49 48.2501C243.063 46.7973 245.182 44.6576 246.61 42.0701C248.075 39.364 248.823 36.3273 248.78 33.2501C248.828 30.1496 248.07 27.0897 246.58 24.3701C245.137 21.7954 243.012 19.6677 240.44 18.2201ZM238.15 37.4801C237.563 38.6283 236.661 39.5857 235.55 40.2401C234.369 40.8959 233.041 41.2401 231.69 41.2401C230.339 41.2401 229.011 40.8959 227.83 40.2401C226.71 39.5799 225.796 38.6207 225.19 37.4701C224.507 36.1734 224.163 34.7253 224.19 33.2601C224.171 31.7862 224.515 30.3302 225.19 29.0201C225.793 27.8621 226.707 26.8958 227.83 26.2301C229.011 25.5743 230.339 25.2301 231.69 25.2301C233.041 25.2301 234.369 25.5743 235.55 26.2301C236.664 26.8895 237.567 27.8542 238.15 29.0101C238.823 30.3249 239.166 31.7834 239.15 33.2601C239.173 34.7281 238.829 36.1786 238.15 37.4801Z" fill="#3E3E3E"/>
<path d="M288.57 4.91005C287.616 4.03232 286.367 3.54517 285.07 3.54517C283.773 3.54517 282.524 4.03232 281.57 4.91005C281.096 5.37339 280.722 5.92958 280.473 6.54385C280.223 7.15812 280.103 7.81726 280.12 8.48005V18.3601C277.633 16.8467 274.781 16.0404 271.87 16.028C268.959 16.0157 266.099 16.7978 263.6 18.2901C261.147 19.8095 259.153 21.9662 257.83 24.5301C256.433 27.2114 255.722 30.1969 255.76 33.2201C255.725 36.2923 256.498 39.3199 258 42C259.465 44.605 261.612 46.7621 264.21 48.2401C266.862 49.752 269.867 50.5351 272.92 50.51C275.92 50.5396 278.874 49.7661 281.474 48.2698C284.075 46.7734 286.228 44.6087 287.71 42C289.242 39.3261 290.033 36.2917 290 33.2101V8.47005C290.017 7.81462 289.902 7.16247 289.661 6.55253C289.421 5.9426 289.06 5.38738 288.6 4.92005L288.57 4.91005ZM279.33 37.39C278.725 38.5508 277.816 39.5255 276.7 40.21C275.551 40.8784 274.245 41.2305 272.915 41.2305C271.585 41.2305 270.279 40.8784 269.13 40.21C267.994 39.5234 267.064 38.542 266.44 37.37C265.76 36.0868 265.416 34.6522 265.44 33.2001C265.417 31.7608 265.761 30.3394 266.44 29.0701C267.068 27.9002 268.001 26.9222 269.14 26.2401C269.989 25.7249 270.934 25.3885 271.918 25.2512C272.901 25.114 273.903 25.1789 274.86 25.4419C275.818 25.7049 276.712 26.1606 277.487 26.781C278.263 27.4014 278.903 28.1735 279.37 29.0501C280.048 30.3269 280.392 31.7545 280.37 33.2001C280.38 34.6618 280.022 36.1026 279.33 37.39Z" fill="#3E3E3E"/>
<path d="M322 18.1701C319.481 16.69 316.601 15.9388 313.68 16.0001C310.639 15.9536 307.642 16.7237 305 18.2301C302.462 19.7028 300.385 21.8531 299 24.4401C297.555 27.1528 296.819 30.1867 296.86 33.2601C296.817 36.3606 297.604 39.4163 299.14 42.1101C300.638 44.714 302.834 46.8476 305.48 48.2701C307.757 49.4851 310.261 50.2154 312.834 50.4151C315.407 50.6147 317.993 50.2793 320.43 49.4301C322.31 48.8292 324.072 47.9091 325.64 46.7101C326.175 46.3309 326.61 45.8285 326.91 45.2454C327.209 44.6622 327.363 44.0155 327.36 43.3601C327.316 42.1283 326.792 40.9625 325.902 40.1108C325.011 39.2591 323.822 38.7888 322.59 38.8001C321.469 38.7662 320.371 39.1193 319.48 39.8001C318.782 40.3204 318.006 40.7256 317.18 41.0001C315.795 41.4852 314.31 41.6149 312.862 41.3773C311.413 41.1396 310.048 40.5423 308.89 39.6401C308.11 39.0058 307.467 38.22 307 37.3301H324.68C325.905 37.3529 327.091 36.8932 327.98 36.0501C328.42 35.6276 328.768 35.1195 329.004 34.557C329.24 33.9946 329.357 33.3898 329.35 32.7801C329.4 29.8224 328.767 26.8931 327.5 24.2201C326.292 21.713 324.381 19.6112 322 18.1701ZM307.1 28.6501C307.496 27.89 308.032 27.2115 308.68 26.6501C310.082 25.4975 311.868 24.9155 313.68 25.0201C314.467 24.9727 315.256 25.0856 315.999 25.3521C316.741 25.6185 317.422 26.0328 318 26.5701C318.603 27.1653 319.085 27.8716 319.42 28.6501H307.1Z" fill="#3E3E3E"/>
<defs>
<linearGradient id="paint0_linear" x1="11.12" y1="49.58" x2="3.71" y2="36.74" gradientUnits="userSpaceOnUse">
<stop stop-color="#26bb7d"/>
<stop offset="0.4" stop-color="#26bb7d"/>
<stop offset="0.91" stop-color="#26bb7d"/>
</linearGradient>
</defs>
</svg>
