<svg width="1000" height="949" viewBox="0 0 1000 949" fill="none" xmlns="http://www.w3.org/2000/svg">
<path d="M313.154 58.4139C313.154 58.4139 143.202 144.993 58.4397 278.406C-26.3229 411.819 -19.6163 583.453 83.3818 710.855C186.38 838.257 383.247 821.524 548.084 902.227C712.922 982.929 894.783 966.309 972.727 795.326C1050.67 624.343 933.138 560.44 912.952 362.563C892.765 164.687 714.38 -125.063 313.154 58.4139Z" fill="#4DF0CB"/>
<path opacity="0.7" d="M313.154 58.4139C313.154 58.4139 143.202 144.993 58.4397 278.406C-26.3229 411.819 -19.6163 583.453 83.3818 710.855C186.38 838.257 383.247 821.524 548.084 902.227C712.922 982.929 894.783 966.309 972.727 795.326C1050.67 624.343 933.138 560.44 912.952 362.563C892.765 164.687 714.38 -125.063 313.154 58.4139Z" fill="white"/>
<path d="M210.5 784.48C213.5 783.48 218.82 778.59 218.82 778.58C218.82 778.57 214.54 776.09 214.25 775.97C210.88 774.55 203.53 773.79 200.86 776.9C200.438 777.429 200.131 778.041 199.959 778.696C199.786 779.35 199.753 780.034 199.86 780.702C199.968 781.371 200.213 782.009 200.582 782.577C200.95 783.145 201.434 783.63 202 784C204.36 785.68 207.9 785.32 210.5 784.48Z" fill="#9C9C9C"/>
<path d="M265.91 737.34C265.98 737.34 263.71 732.91 263.53 732.64C261.53 729.64 255.79 724.91 251.85 726.03C251.2 726.234 250.601 726.573 250.09 727.024C249.58 727.475 249.17 728.028 248.887 728.647C248.604 729.267 248.455 729.939 248.448 730.62C248.442 731.301 248.579 731.975 248.85 732.6C249.92 735.28 253.07 736.94 255.71 737.67C258.81 738.53 265.9 737.35 265.91 737.34Z" fill="#9C9C9C"/>
<path d="M226.19 798.39C228.77 796.7 232.33 791.05 232.61 790.6C235.838 792.643 239.198 794.467 242.67 796.06C244.67 797 246.75 797.89 248.83 798.75C247.83 798.49 246.92 798.28 246.83 798.26C243.2 797.78 235.91 798.99 234.16 802.69C233.886 803.315 233.746 803.991 233.751 804.674C233.756 805.356 233.905 806.03 234.188 806.651C234.471 807.272 234.882 807.827 235.394 808.278C235.907 808.729 236.508 809.067 237.16 809.27C239.88 810.27 243.16 808.96 245.49 807.46C247.82 805.96 250.94 801.17 251.75 799.9L254.15 800.9C258 802.43 261.84 803.9 265.57 805.54C266.88 806.1 268.15 806.71 269.43 807.3C268.53 807.08 267.78 806.9 267.66 806.89C264.03 806.41 256.75 807.62 254.99 811.32C254.716 811.945 254.576 812.62 254.581 813.302C254.586 813.984 254.735 814.657 255.018 815.277C255.302 815.897 255.713 816.451 256.225 816.901C256.737 817.352 257.338 817.689 257.99 817.89C260.72 818.89 264.04 817.58 266.32 816.08C268.6 814.58 271.46 810.26 272.44 808.76C273.72 809.41 275.01 810.06 276.23 810.76C277.05 811.25 277.88 811.66 278.68 812.2L281.06 813.73C282.53 814.73 284.06 815.81 285.48 816.85C286.48 817.57 287.4 818.27 288.34 818.97C287.04 818.4 284.47 817.32 284.24 817.26C280.73 816.26 273.34 816.33 271.05 819.72C270.683 820.294 270.441 820.939 270.341 821.612C270.24 822.286 270.282 822.973 270.466 823.629C270.649 824.285 270.968 824.895 271.403 825.419C271.838 825.943 272.379 826.369 272.99 826.67C275.53 828.04 278.99 827.28 281.5 826.14C284.23 824.89 288.5 820.06 288.98 819.45C290.53 820.62 292.03 821.77 293.42 822.88C297.48 826.09 300.86 828.98 303.42 831.24L305.42 829.42C302.74 827.16 299.16 824.22 294.85 820.96C293.28 819.77 291.58 818.52 289.85 817.26C290.773 815.412 291.588 813.513 292.29 811.57C295.36 811.88 301.14 810.29 301.89 810.08C302.54 811.91 303.15 813.7 303.7 815.39C305.28 820.22 306.49 824.39 307.38 827.7L309.62 825.7C308.69 822.61 307.49 818.84 306 814.59C305.35 812.73 304.62 810.76 303.84 808.74C304.53 808.35 310.09 805.11 311.84 802.67C313.43 800.45 314.84 797.18 313.98 794.41C313.798 793.755 313.481 793.145 313.049 792.62C312.618 792.095 312.08 791.667 311.472 791.362C310.865 791.058 310.2 790.884 309.52 790.853C308.841 790.822 308.163 790.933 307.53 791.18C303.76 792.79 302.26 800.02 302.59 803.66C302.59 803.88 303.09 806.19 303.41 807.66C303.09 806.83 302.79 806.03 302.41 805.19C301.75 803.51 301.04 801.86 300.29 800.08C299.89 799.23 299.5 798.38 299.09 797.52C298.68 796.66 298.2 795.79 297.75 794.91C296.68 792.91 295.49 790.91 294.24 788.91C295.71 788.33 300.88 786.19 302.8 784.23C304.72 782.27 306.6 779.23 306.16 776.4C306.083 775.724 305.864 775.073 305.518 774.487C305.171 773.902 304.706 773.396 304.151 773.002C303.596 772.609 302.965 772.337 302.298 772.204C301.631 772.071 300.943 772.08 300.28 772.23C296.28 773.23 293.73 780.17 293.51 783.82C293.51 784.04 293.63 786.68 293.73 788.13C292.97 786.95 292.22 785.77 291.42 784.6C289.1 781.23 286.64 777.89 284.21 774.55C283.46 773.55 282.73 772.5 282 771.47C282.52 771.27 288.72 768.86 290.87 766.67C292.78 764.67 294.67 761.67 294.24 758.83C294.161 758.154 293.941 757.502 293.594 756.917C293.247 756.331 292.78 755.825 292.225 755.432C291.669 755.038 291.037 754.766 290.369 754.634C289.702 754.501 289.014 754.51 288.35 754.66C284.35 755.66 281.8 762.6 281.58 766.25C281.58 766.53 281.76 770.32 281.86 771.25C280.24 768.98 278.65 766.71 277.17 764.41C275.152 761.317 273.341 758.093 271.75 754.76C271.99 754.67 278.47 752.18 280.67 749.93C282.58 747.93 284.47 744.93 284.04 742.1C283.963 741.424 283.744 740.773 283.398 740.187C283.052 739.602 282.586 739.096 282.031 738.702C281.476 738.309 280.845 738.037 280.178 737.904C279.511 737.771 278.823 737.78 278.16 737.93C274.16 738.93 271.61 745.87 271.39 749.52C271.39 749.76 271.52 752.65 271.62 754.02L271.4 754.08C269.878 750.686 268.667 747.162 267.78 743.55C267.27 741.55 266.89 739.64 266.56 737.77C267.81 737.43 273.56 735.82 275.74 734.01C277.92 732.2 280.06 729.48 279.95 726.59C279.944 725.91 279.796 725.238 279.514 724.619C279.233 723.999 278.824 723.446 278.315 722.994C277.806 722.543 277.208 722.203 276.559 721.998C275.911 721.792 275.226 721.725 274.55 721.8C270.5 722.37 267.17 728.97 266.55 732.58C266.55 732.77 266.39 734.8 266.32 736.28C266.19 735.43 266.03 734.56 265.92 733.74C265.49 730.67 265.28 727.84 265.11 725.33C265.03 723.9 264.99 722.6 264.96 721.39C266.01 720.39 270.23 716.39 271.33 713.86C272.43 711.33 273.08 707.86 271.65 705.34C271.333 704.737 270.893 704.208 270.358 703.786C269.823 703.364 269.205 703.06 268.545 702.893C267.884 702.726 267.196 702.7 266.525 702.817C265.854 702.933 265.215 703.19 264.65 703.57C261.31 705.95 261.4 713.34 262.51 716.83C262.61 717.13 264.64 721.67 264.7 721.62L264.76 721.56C264.76 722.72 264.76 723.97 264.84 725.34C264.95 727.86 265.09 730.71 265.46 733.8C265.821 737.13 266.375 740.435 267.12 743.7C267.936 747.366 269.081 750.95 270.54 754.41L270.6 754.53C269.82 753.62 267.55 751.15 267.35 750.98C264.59 748.58 257.84 745.57 254.35 747.69C253.777 748.058 253.288 748.542 252.915 749.111C252.541 749.68 252.292 750.321 252.184 750.993C252.075 751.665 252.11 752.352 252.285 753.01C252.46 753.668 252.772 754.281 253.2 754.81C254.94 757.12 258.41 757.89 261.15 757.9C264.23 757.9 270.31 755.15 270.8 754.9C272.366 758.386 274.163 761.764 276.18 765.01C277.34 766.9 278.57 768.78 279.83 770.64C279.13 769.88 278.5 769.2 278.4 769.11C275.64 766.72 268.89 763.7 265.4 765.82C264.827 766.188 264.338 766.672 263.965 767.241C263.591 767.81 263.342 768.451 263.234 769.123C263.125 769.795 263.16 770.482 263.335 771.14C263.51 771.798 263.822 772.411 264.25 772.94C265.98 775.26 269.46 776.02 272.2 776.03C274.94 776.04 280.2 773.79 281.58 773.18C282.07 773.89 282.58 774.61 283.05 775.32C285.41 778.71 287.78 782.1 290.05 785.48C290.84 786.68 291.57 787.88 292.3 789.08C291.68 788.4 291.15 787.84 291.06 787.76C288.3 785.36 281.55 782.35 278.06 784.47C277.488 784.838 276.999 785.323 276.627 785.892C276.255 786.462 276.007 787.104 275.899 787.776C275.792 788.447 275.827 789.134 276.003 789.792C276.179 790.449 276.491 791.062 276.92 791.59C278.65 793.9 282.13 794.67 284.86 794.68C287.59 794.69 292.36 792.68 294 791.94C294.72 793.19 295.44 794.44 296.07 795.69C296.49 796.55 296.95 797.35 297.31 798.24C297.67 799.13 298.08 799.98 298.45 800.83C299.12 802.51 299.81 804.23 300.45 805.88C300.88 807.02 301.27 808.12 301.66 809.22C300.9 808.02 299.34 805.71 299.19 805.53C297.011 803.152 294.255 801.375 291.19 800.37C290.962 800.093 290.708 799.838 290.43 799.61C289.918 799.162 289.318 798.827 288.668 798.627C288.018 798.426 287.334 798.364 286.658 798.445C285.983 798.526 285.333 798.749 284.749 799.097C284.165 799.446 283.661 799.914 283.27 800.47C281.01 803.89 283.75 810.75 286.04 813.61C286.17 813.78 287.84 815.44 288.91 816.47L286.65 815C285.18 814 283.65 813 282.07 811.91L279.66 810.43C278.86 809.92 277.96 809.48 277.1 809C275.1 807.92 273.01 806.92 270.89 806C271.79 804.71 274.89 800.08 275.44 797.38C275.99 794.68 275.86 791.14 273.93 788.99C273.491 788.47 272.948 788.048 272.336 787.751C271.724 787.455 271.056 787.29 270.376 787.268C269.696 787.247 269.019 787.368 268.389 787.625C267.759 787.882 267.191 788.269 266.72 788.76C263.97 791.76 265.64 798.99 267.46 802.16C267.58 802.36 269.14 804.48 270.03 805.63C268.75 805.07 267.47 804.5 266.16 803.97C262.36 802.44 258.47 800.97 254.6 799.56C253.41 799.12 252.23 798.66 251.05 798.21C251.38 797.76 255.22 792.33 255.8 789.31C256.32 786.63 256.23 783.07 254.29 780.92C253.851 780.4 253.308 779.978 252.696 779.681C252.084 779.385 251.416 779.22 250.736 779.198C250.056 779.177 249.379 779.298 248.749 779.555C248.119 779.812 247.551 780.199 247.08 780.69C244.33 783.69 246 790.92 247.83 794.09C247.96 794.33 250.22 797.38 250.83 798.09C248.23 797.09 245.65 796.09 243.14 794.98C239.752 793.513 236.464 791.823 233.3 789.92C233.45 789.71 237.49 784.06 238.08 780.97C238.59 778.29 238.5 774.73 236.57 772.58C236.131 772.06 235.588 771.638 234.976 771.341C234.364 771.045 233.696 770.88 233.016 770.858C232.336 770.837 231.659 770.958 231.029 771.215C230.399 771.472 229.831 771.859 229.36 772.35C226.61 775.35 228.28 782.58 230.1 785.75C230.22 785.96 231.94 788.29 232.79 789.38L232.63 789.55C229.493 787.555 226.541 785.282 223.81 782.76C222.28 781.39 220.9 780 219.59 778.61C220.45 777.61 224.33 773.14 225.18 770.41C226.03 767.68 226.28 764.25 224.6 761.91C224.219 761.346 223.723 760.869 223.146 760.509C222.568 760.149 221.921 759.914 221.247 759.82C220.573 759.726 219.887 759.774 219.233 759.962C218.579 760.15 217.971 760.473 217.45 760.91C214.39 763.63 215.26 770.97 216.72 774.32C216.8 774.5 217.82 776.26 218.58 777.53C218 776.9 217.39 776.26 216.84 775.64C214.84 773.32 213.05 771.07 211.53 769.06C210.67 767.91 209.92 766.86 209.22 765.87C209.57 764.47 210.89 758.82 210.39 756.07C209.89 753.32 208.53 750.07 205.95 748.79C205.354 748.463 204.697 748.264 204.019 748.208C203.342 748.152 202.66 748.239 202.019 748.463C201.377 748.688 200.79 749.045 200.296 749.511C199.802 749.978 199.411 750.543 199.15 751.17C197.68 754.99 201.83 761.1 204.67 763.4C204.92 763.6 209.12 766.26 209.14 766.19C209.142 766.16 209.142 766.13 209.14 766.1C209.79 767.1 210.5 768.1 211.29 769.22C212.77 771.22 214.47 773.56 216.48 775.93C218.621 778.509 220.908 780.963 223.33 783.28C226.035 785.866 228.963 788.209 232.08 790.28L232.2 790.35C231.05 790.02 227.79 789.21 227.53 789.18C223.9 788.7 216.62 789.91 214.86 793.61C214.586 794.235 214.446 794.911 214.451 795.594C214.456 796.276 214.605 796.95 214.888 797.571C215.171 798.192 215.582 798.747 216.094 799.198C216.607 799.649 217.208 799.987 217.86 800.19C220.59 801.17 223.91 799.9 226.19 798.39Z" fill="#9C9C9C"/>
<path d="M413.28 544.71C415.42 548.29 423.13 553.54 423.14 553.54C423.15 553.54 425.06 547.41 425.14 547C425.96 542.33 424.8 532.81 420.14 530.33C419.348 529.939 418.483 529.72 417.601 529.686C416.718 529.651 415.839 529.803 415.019 530.132C414.199 530.46 413.458 530.957 412.843 531.591C412.228 532.225 411.753 532.981 411.45 533.81C410 537.29 411.46 541.67 413.28 544.71Z" fill="#9C9C9C"/>
<path d="M488.89 601.25C488.89 601.34 493.89 597.19 494.16 596.89C497.43 593.44 501.71 584.89 499.16 580.2C498.715 579.437 498.114 578.777 497.396 578.261C496.679 577.746 495.861 577.387 494.996 577.209C494.131 577.031 493.238 577.037 492.376 577.226C491.513 577.416 490.7 577.785 489.99 578.31C486.9 580.44 485.71 584.9 485.54 588.44C485.35 592.6 488.89 601.24 488.89 601.25Z" fill="#9C9C9C"/>
<path d="M400.19 568.58C403.08 571.35 411.26 574.23 411.91 574.45C410.26 579.126 408.924 583.906 407.91 588.76C407.3 591.58 406.77 594.45 406.28 597.33C406.28 595.98 406.28 594.77 406.28 594.6C405.84 589.88 402.21 581 397.02 579.85C396.153 579.681 395.26 579.697 394.399 579.896C393.538 580.096 392.729 580.474 392.024 581.008C391.319 581.541 390.735 582.216 390.308 582.99C389.882 583.764 389.624 584.62 389.55 585.5C389.11 589.23 391.69 593.07 394.25 595.5C396.81 597.93 403.77 600.59 405.61 601.25C405.43 602.35 405.24 603.46 405.07 604.56C404.24 609.87 403.44 615.17 402.49 620.35C402.16 622.17 401.76 623.96 401.37 625.75C401.37 624.55 401.37 623.54 401.37 623.39C400.93 618.66 397.3 609.79 392.11 608.63C391.243 608.463 390.35 608.48 389.49 608.681C388.629 608.882 387.821 609.261 387.117 609.795C386.413 610.329 385.83 611.005 385.405 611.78C384.98 612.554 384.723 613.41 384.65 614.29C384.21 618.01 386.78 621.85 389.34 624.29C391.9 626.73 398.19 629.11 400.34 629.91C399.89 631.73 399.44 633.55 398.92 635.29C398.53 636.47 398.25 637.63 397.8 638.8L396.54 642.25C395.67 644.41 394.78 646.65 393.87 648.75C393.25 650.2 392.63 651.58 392.01 652.97C392.36 651.16 393.01 647.6 393.01 647.3C393.29 642.56 391.01 633.24 386.09 631.3C385.258 631.002 384.372 630.882 383.491 630.949C382.609 631.017 381.752 631.269 380.974 631.69C380.197 632.11 379.516 632.69 378.978 633.392C378.44 634.093 378.056 634.9 377.85 635.76C376.85 639.37 378.85 643.56 380.97 646.37C383.35 649.47 390.68 653.43 391.6 653.92C390.6 656.21 389.54 658.44 388.54 660.52C385.64 666.59 382.96 671.69 380.84 675.6L383.73 677.66C385.83 673.66 388.51 668.25 391.39 661.85C392.45 659.52 393.54 657.01 394.63 654.42C397.232 655.063 399.87 655.547 402.53 655.87C403.03 659.87 406.7 666.71 407.18 667.59C405.05 668.94 402.97 670.23 400.98 671.41C395.33 674.81 390.36 677.55 386.47 679.62L389.62 681.87C393.27 679.81 397.69 677.21 402.62 674.1C404.79 672.74 407.08 671.24 409.41 669.68C410.1 670.44 415.8 676.54 419.41 678.06C422.68 679.43 427.22 680.28 430.47 678.39C431.25 677.975 431.933 677.4 432.475 676.703C433.018 676.005 433.407 675.201 433.617 674.344C433.828 673.486 433.855 672.593 433.697 671.724C433.539 670.855 433.199 670.029 432.7 669.3C429.58 664.99 420 665.18 415.48 666.65C415.22 666.74 412.43 668 410.69 668.83C411.64 668.19 412.57 667.57 413.54 666.9C415.47 665.58 417.36 664.21 419.39 662.75L422.29 660.5C423.29 659.76 424.22 658.87 425.2 658.05C427.43 656.11 429.6 654.05 431.73 651.89C432.89 653.57 437.09 659.5 440.12 661.36C443.15 663.22 447.51 664.74 451 663.36C451.834 663.067 452.597 662.602 453.238 661.995C453.88 661.388 454.387 660.652 454.726 659.836C455.065 659.02 455.228 658.142 455.204 657.259C455.181 656.376 454.972 655.507 454.59 654.71C452.16 649.98 442.65 648.71 437.97 649.48C437.68 649.53 434.38 650.48 432.58 651C433.85 649.71 435.13 648.42 436.37 647.06C439.97 643.16 443.49 639.06 447.01 635.06C448.09 633.82 449.19 632.6 450.27 631.38C450.68 631.98 455.51 639.13 458.91 641.22C461.91 643.07 466.3 644.6 469.8 643.22C470.633 642.926 471.395 642.461 472.035 641.853C472.676 641.245 473.182 640.51 473.52 639.694C473.857 638.878 474.02 638 473.996 637.117C473.971 636.234 473.762 635.366 473.38 634.57C470.95 629.84 461.44 628.57 456.76 629.34C456.41 629.39 451.66 630.74 450.47 631.14C452.87 628.44 455.28 625.77 457.77 623.23C461.108 619.79 464.666 616.57 468.42 613.59C468.61 613.87 473.62 621.36 477.1 623.5C480.1 625.35 484.49 626.87 487.99 625.5C488.823 625.206 489.585 624.741 490.225 624.133C490.866 623.525 491.372 622.79 491.71 621.974C492.047 621.158 492.21 620.28 492.186 619.397C492.161 618.514 491.952 617.646 491.57 616.85C489.14 612.12 479.63 610.85 474.95 611.63C474.64 611.63 471.03 612.7 469.32 613.22L469.18 612.95C473.043 610.054 477.156 607.507 481.47 605.34C483.83 604.12 486.15 603.09 488.47 602.13C489.26 603.62 492.95 610.39 495.87 612.66C498.79 614.93 502.87 616.83 506.47 615.85C507.33 615.65 508.138 615.271 508.841 614.737C509.545 614.204 510.128 613.529 510.553 612.756C510.979 611.982 511.237 611.128 511.31 610.248C511.384 609.369 511.271 608.483 510.98 607.65C509.08 602.65 499.78 600.37 495.04 600.65C494.78 600.65 492.17 601.1 490.28 601.43C491.28 601.02 492.38 600.57 493.38 600.19C497.14 598.76 500.66 597.68 503.8 596.75C505.58 596.23 507.21 595.75 508.73 595.41C510.27 596.47 516.52 600.66 520.1 601.31C523.68 601.96 528.21 601.8 530.97 599.26C531.641 598.686 532.184 597.977 532.562 597.179C532.941 596.381 533.148 595.512 533.168 594.629C533.189 593.746 533.024 592.869 532.683 592.054C532.342 591.239 531.833 590.505 531.19 589.9C527.19 586.37 517.9 588.61 513.81 591.01C513.45 591.22 508.3 595.11 508.38 595.17L508.47 595.23C507 595.57 505.42 595.96 503.7 596.41C500.55 597.28 496.98 598.29 493.18 599.64C489.067 601.073 485.041 602.743 481.12 604.64C476.721 606.732 472.514 609.208 468.55 612.04L468.42 612.15C469.34 610.9 471.82 607.32 471.98 607.02C474.22 602.83 476.09 593.43 472.4 589.6C471.768 588.984 471.013 588.507 470.185 588.201C469.356 587.894 468.473 587.765 467.592 587.822C466.711 587.878 465.851 588.119 465.069 588.529C464.286 588.939 463.599 589.508 463.05 590.2C460.63 593.07 460.66 597.69 461.44 601.15C462.32 605.05 467.55 611.96 467.97 612.51C464.012 615.497 460.257 618.744 456.73 622.23C454.66 624.23 452.65 626.35 450.65 628.48C451.42 627.37 452.09 626.37 452.17 626.22C454.41 622.04 456.28 612.63 452.59 608.81C451.96 608.191 451.207 607.712 450.379 607.404C449.551 607.096 448.668 606.966 447.786 607.022C446.905 607.079 446.045 607.321 445.263 607.732C444.482 608.144 443.796 608.716 443.25 609.41C440.82 612.27 440.85 616.89 441.63 620.35C442.41 623.81 446.77 629.85 447.94 631.41L445.66 633.88C442.04 637.88 438.45 641.83 434.8 645.62C433.52 646.96 432.2 648.23 430.89 649.51C431.57 648.51 432.14 647.69 432.21 647.51C434.45 643.33 436.32 633.92 432.63 630.1C431.999 629.482 431.245 629.003 430.417 628.695C429.589 628.387 428.706 628.256 427.824 628.312C426.942 628.368 426.082 628.608 425.299 629.018C424.516 629.428 423.828 629.997 423.28 630.69C420.86 633.56 420.89 638.18 421.67 641.64C422.45 645.1 426.38 650.55 427.77 652.42C426.39 653.68 425.01 654.95 423.61 656.12C422.61 656.89 421.76 657.7 420.74 658.43L417.79 660.61C415.87 661.94 413.89 663.31 411.98 664.56C410.65 665.43 409.38 666.24 408.09 667.06C409.39 665.74 411.87 663.11 412.09 662.87C414.469 659.435 415.928 655.449 416.33 651.29C416.613 650.92 416.86 650.525 417.07 650.11C417.489 649.332 417.74 648.475 417.807 647.594C417.873 646.713 417.753 645.828 417.455 644.996C417.157 644.164 416.688 643.404 416.077 642.766C415.466 642.128 414.728 641.625 413.91 641.29C408.91 639.42 401.04 644.86 398.09 648.58C397.91 648.8 396.29 651.39 395.29 653.04C395.73 651.98 396.17 650.96 396.61 649.86C397.49 647.7 398.31 645.52 399.19 643.17C399.58 642.02 399.98 640.86 400.37 639.69C400.76 638.52 401.08 637.27 401.45 636.05C402.24 633.19 402.9 630.27 403.5 627.3C405.39 628.07 412.16 630.7 415.72 630.58C419.28 630.46 423.72 629.32 425.91 626.25C426.443 625.545 426.821 624.736 427.02 623.876C427.219 623.015 427.234 622.123 427.066 621.256C426.897 620.389 426.547 619.567 426.04 618.844C425.532 618.121 424.878 617.513 424.12 617.06C419.49 614.45 410.86 618.64 407.38 621.86C407.16 622.07 404.92 624.66 403.72 626.11C404.06 624.33 404.42 622.55 404.72 620.73C405.56 615.48 406.25 610.15 406.97 604.83C407.18 603.2 407.42 601.58 407.65 599.96C408.32 600.24 416.3 603.54 420.29 603.4C423.83 603.28 428.29 602.14 430.47 599.07C431.003 598.366 431.382 597.558 431.582 596.698C431.781 595.837 431.798 594.945 431.63 594.078C431.462 593.211 431.114 592.389 430.607 591.666C430.101 590.943 429.447 590.334 428.69 589.88C424.05 587.28 415.42 591.46 411.94 594.69C411.68 594.93 408.46 598.69 407.69 599.69C408.2 596.12 408.69 592.56 409.41 589.07C410.307 584.355 411.506 579.702 413 575.14C413.31 575.27 421.62 578.76 425.71 578.62C429.25 578.49 433.71 577.36 435.89 574.29C436.423 573.585 436.802 572.776 437.002 571.915C437.202 571.054 437.218 570.161 437.051 569.293C436.883 568.426 436.534 567.603 436.028 566.879C435.521 566.155 434.868 565.545 434.11 565.09C429.47 562.49 420.85 566.67 417.36 569.9C417.13 570.11 414.68 572.96 413.54 574.34L413.28 574.19C414.884 569.646 416.892 565.255 419.28 561.07C420.58 558.75 421.94 556.6 423.28 554.54C424.76 555.35 431.57 558.96 435.28 559.25C438.82 559.51 443.39 558.87 445.88 556.06C446.487 555.418 446.951 554.656 447.243 553.822C447.536 552.989 447.649 552.103 447.576 551.223C447.504 550.343 447.247 549.488 446.822 548.714C446.397 547.94 445.814 547.264 445.11 546.73C440.79 543.63 431.76 546.84 427.94 549.67C427.74 549.82 425.8 551.61 424.41 552.94C425.04 552.02 425.68 551.06 426.31 550.19C428.65 546.93 431 544.08 433.09 541.57C434.3 540.16 435.42 538.9 436.47 537.74C438.34 537.74 445.87 537.82 449.21 536.39C452.55 534.96 456.21 532.32 457.15 528.68C457.393 527.829 457.454 526.937 457.329 526.061C457.203 525.185 456.895 524.346 456.423 523.597C455.951 522.849 455.327 522.209 454.59 521.718C453.854 521.227 453.023 520.898 452.15 520.75C446.89 519.99 440.35 527.01 438.26 531.27C438.08 531.64 435.93 537.73 436.02 537.73H436.14C435.14 538.83 433.99 540.02 432.81 541.35C430.66 543.81 428.24 546.62 425.81 549.84C423.16 553.292 420.713 556.895 418.48 560.63C415.966 564.802 413.828 569.19 412.09 573.74L412.03 573.91C412.12 572.35 412.2 568 412.17 567.66C411.73 562.93 408.1 554.06 402.91 552.91C402.044 552.743 401.151 552.76 400.292 552.96C399.432 553.16 398.624 553.539 397.921 554.072C397.217 554.605 396.633 555.28 396.208 556.053C395.782 556.826 395.524 557.681 395.45 558.56C395.06 562.29 397.63 566.13 400.19 568.58Z" fill="#9C9C9C"/>
<path d="M460.67 744.61V741.26C460.67 724.01 482.51 723.26 482.51 710.98C482.51 705.65 478.17 702.17 471.71 702.17C464.64 702.17 460.17 706.02 460.17 711.48V712.85C460.17 714.21 459.43 714.85 458.06 714.85L444.79 714.35C443.55 714.35 442.68 713.73 442.68 712.87V711.5C442.68 696.5 454.59 686.19 472.09 686.19C489.21 686.19 500.25 695.87 500.25 710.38C500.25 730.98 478.04 731.11 478.04 742.38V744.61C478.073 744.895 478.042 745.185 477.948 745.456C477.854 745.727 477.699 745.974 477.496 746.177C477.293 746.38 477.047 746.534 476.775 746.628C476.504 746.723 476.215 746.754 475.93 746.72H462.78C462.494 746.754 462.205 746.723 461.934 746.628C461.663 746.534 461.416 746.38 461.213 746.177C461.01 745.974 460.856 745.727 460.761 745.456C460.667 745.185 460.636 744.895 460.67 744.61V744.61ZM459.55 764.61C459.55 759.15 464.39 754.68 470.22 754.68C475.81 754.68 480.77 759.15 480.77 764.61C480.77 770.07 475.77 774.54 470.1 774.54C464.43 774.54 459.55 770.05 459.55 764.59V764.61Z" fill="black"/>
<path d="M198.469 602.51V599.6C198.469 584.6 217.469 583.97 217.469 573.3C217.469 568.66 213.699 565.65 208.099 565.65C201.949 565.65 198.099 568.99 198.099 573.73V574.92C198.099 576.1 197.459 576.64 196.269 576.64L184.739 576.21C183.659 576.21 182.909 575.67 182.909 574.92V573.73C182.909 560.73 193.249 551.73 208.449 551.73C223.319 551.73 232.919 560.14 232.919 572.73C232.919 590.62 213.619 590.73 213.619 600.54V602.48C213.648 602.727 213.621 602.978 213.539 603.213C213.457 603.448 213.323 603.662 213.147 603.838C212.971 604.014 212.757 604.148 212.522 604.23C212.287 604.311 212.036 604.339 211.789 604.31H200.299C200.055 604.338 199.807 604.311 199.574 604.231C199.342 604.151 199.13 604.02 198.954 603.847C198.779 603.674 198.644 603.465 198.56 603.233C198.476 603.002 198.445 602.755 198.469 602.51V602.51ZM197.469 619.86C197.469 615.12 201.669 611.24 206.729 611.24C211.579 611.24 215.899 615.12 215.899 619.86C215.899 624.6 211.579 628.48 206.629 628.48C204.278 628.539 201.998 627.666 200.288 626.051C198.577 624.437 197.575 622.211 197.499 619.86H197.469Z" fill="#4DF0CB"/>
<path d="M439.83 487.76V486.29C439.83 478.72 449.41 478.39 449.41 473C449.41 470.66 447.5 469.13 444.67 469.13C441.57 469.13 439.61 470.82 439.61 473.22V473.82C439.61 474.42 439.28 474.69 438.68 474.69L432.86 474.47C432.31 474.47 431.93 474.2 431.93 473.82V473.22C431.93 466.63 437.16 462.11 444.84 462.11C452.35 462.11 457.2 466.36 457.2 472.73C457.2 481.73 447.45 481.82 447.45 486.73V487.73C447.464 487.855 447.45 487.982 447.409 488.101C447.367 488.22 447.299 488.328 447.209 488.417C447.119 488.506 447.011 488.573 446.891 488.613C446.772 488.654 446.645 488.666 446.52 488.65H440.75C440.628 488.666 440.504 488.654 440.387 488.615C440.271 488.576 440.164 488.511 440.076 488.426C439.988 488.341 439.92 488.236 439.877 488.121C439.834 488.006 439.818 487.882 439.83 487.76V487.76ZM439.34 496.53C439.275 495.595 439.494 494.662 439.967 493.853C440.44 493.044 441.146 492.396 441.992 491.993C442.838 491.591 443.786 491.452 444.712 491.595C445.639 491.738 446.5 492.157 447.185 492.796C447.871 493.436 448.347 494.267 448.554 495.181C448.76 496.095 448.687 497.05 448.344 497.922C448 498.794 447.402 499.543 446.627 500.07C445.852 500.598 444.937 500.88 444 500.88C443.408 500.901 442.818 500.806 442.263 500.599C441.708 500.391 441.2 500.077 440.767 499.673C440.334 499.268 439.985 498.783 439.74 498.244C439.495 497.704 439.359 497.122 439.34 496.53Z" fill="#4DF0CB"/>
<path d="M159 690V688.15C159 678.61 171.08 678.2 171.08 671.4C171.08 668.45 168.68 666.53 165.08 666.53C161.17 666.53 158.7 668.66 158.7 671.68V672.43C158.7 673.19 158.29 673.53 157.53 673.53L150.19 673.26C149.5 673.26 149.02 672.91 149.02 672.43V671.68C149.02 663.38 155.61 657.68 165.29 657.68C174.76 657.68 180.86 663.03 180.86 671.06C180.86 682.45 168.58 682.52 168.58 688.77V690C168.599 690.158 168.582 690.319 168.53 690.47C168.478 690.621 168.393 690.758 168.28 690.87C168.167 690.983 168.03 691.069 167.879 691.121C167.728 691.173 167.568 691.19 167.41 691.17H160.15C159.993 691.186 159.834 691.167 159.686 691.114C159.538 691.06 159.404 690.974 159.293 690.862C159.183 690.749 159.099 690.614 159.048 690.464C158.997 690.315 158.981 690.157 159 690V690ZM158.38 701.05C158.301 699.872 158.579 698.698 159.178 697.68C159.776 696.662 160.667 695.848 161.735 695.344C162.803 694.839 163.997 694.668 165.164 694.852C166.33 695.036 167.414 695.567 168.274 696.376C169.134 697.185 169.731 698.234 169.987 699.386C170.243 700.539 170.146 701.742 169.708 702.839C169.271 703.936 168.513 704.875 167.534 705.535C166.555 706.195 165.4 706.546 164.22 706.54C162.715 706.589 161.252 706.038 160.153 705.008C159.054 703.979 158.409 702.555 158.36 701.05H158.38Z" stroke="black" stroke-miterlimit="10"/>
<path d="M251 517.38V516.11C251 509.55 259.31 509.26 259.31 504.59C259.31 502.59 257.66 501.24 255.2 501.24C252.51 501.24 250.81 502.7 250.81 504.78V505.3C250.81 505.82 250.53 506.05 250.01 506.05L245.01 505.86C244.54 505.86 244.21 505.63 244.21 505.3V504.78C244.21 499.07 248.74 495.15 255.39 495.15C262.04 495.15 266 498.83 266 504.35C266 512.19 257.55 512.24 257.55 516.53V517.38C257.563 517.488 257.551 517.598 257.515 517.701C257.48 517.804 257.421 517.897 257.344 517.974C257.267 518.051 257.174 518.11 257.071 518.146C256.968 518.181 256.858 518.193 256.75 518.18H251.75C251.646 518.185 251.542 518.167 251.445 518.128C251.348 518.089 251.261 518.029 251.19 517.953C251.119 517.877 251.065 517.787 251.032 517.688C250.999 517.589 250.988 517.484 251 517.38V517.38ZM250.58 524.98C250.536 524.181 250.733 523.387 251.145 522.701C251.556 522.015 252.165 521.468 252.891 521.132C253.617 520.795 254.427 520.684 255.217 520.812C256.007 520.941 256.74 521.303 257.321 521.853C257.903 522.403 258.306 523.114 258.479 523.895C258.652 524.677 258.587 525.492 258.292 526.236C257.997 526.979 257.485 527.618 256.823 528.068C256.162 528.518 255.38 528.759 254.58 528.76C253.547 528.795 252.543 528.419 251.787 527.714C251.031 527.009 250.586 526.033 250.55 525L250.58 524.98Z" fill="black"/>
<path d="M399 791.53V790.26C399 783.7 407.31 783.42 407.31 778.74C407.31 776.74 405.66 775.39 403.2 775.39C400.51 775.39 398.81 776.85 398.81 778.93V779.45C398.81 779.97 398.53 780.21 398.01 780.21L393.01 780.02C392.54 780.02 392.21 779.78 392.21 779.45V778.93C392.21 773.22 396.74 769.3 403.39 769.3C410.04 769.3 414.11 772.98 414.11 778.51C414.11 786.34 405.66 786.39 405.66 790.68V791.53C405.673 791.639 405.661 791.749 405.625 791.852C405.589 791.955 405.531 792.049 405.454 792.127C405.377 792.205 405.284 792.264 405.181 792.301C405.078 792.338 404.969 792.351 404.86 792.34H399.86C399.747 792.362 399.63 792.356 399.519 792.324C399.409 792.291 399.307 792.233 399.224 792.154C399.14 792.075 399.076 791.977 399.037 791.869C398.998 791.761 398.985 791.644 399 791.53V791.53ZM398.58 799.13C398.536 798.331 398.733 797.537 399.145 796.851C399.556 796.165 400.165 795.618 400.891 795.281C401.617 794.945 402.427 794.833 403.217 794.962C404.007 795.091 404.74 795.453 405.321 796.003C405.903 796.552 406.306 797.264 406.479 798.045C406.652 798.827 406.587 799.642 406.292 800.386C405.997 801.129 405.485 801.768 404.823 802.218C404.162 802.668 403.38 802.909 402.58 802.91C401.551 802.934 400.553 802.55 399.806 801.842C399.058 801.134 398.621 800.159 398.59 799.13H398.58Z" stroke="black" stroke-miterlimit="10"/>
<path d="M359.849 814.29C359.779 814.08 359.709 813.87 359.629 813.66C359.549 813.45 359.489 813.23 359.409 813.02C359.329 812.81 359.269 812.6 359.189 812.39C359.109 812.18 359.049 811.96 358.969 811.75C358.889 811.54 358.829 811.33 358.749 811.12C358.669 810.91 358.609 810.69 358.529 810.48L358.309 809.85C358.239 809.63 358.159 809.42 358.089 809.21L357.869 808.58C357.799 808.36 357.719 808.15 357.649 807.94L357.429 807.31C357.359 807.09 357.279 806.88 357.209 806.67L356.999 806C356.929 805.78 356.849 805.57 356.779 805.36L356.549 804.73C356.479 804.51 356.409 804.3 356.329 804.09C356.249 803.88 356.189 803.67 356.109 803.46C356.029 803.25 355.969 803.03 355.889 802.82C355.809 802.61 355.749 802.4 355.669 802.19C352.409 792.27 342.329 784.99 331.239 784.99C320.489 784.99 311.139 791.25 307.239 800.07C307.139 800.27 307.049 800.48 306.959 800.68L306.689 801.3C306.589 801.5 306.499 801.7 306.409 801.91C306.319 802.12 306.219 802.32 306.129 802.52L305.859 803.13C305.759 803.34 305.669 803.54 305.579 803.75C305.489 803.96 305.389 804.15 305.299 804.36C305.209 804.57 305.109 804.76 305.019 804.97L304.749 805.58C304.649 805.78 304.559 805.99 304.469 806.19C304.379 806.39 304.279 806.6 304.189 806.8L303.919 807.42C303.819 807.62 303.729 807.82 303.639 808.03C303.549 808.24 303.449 808.44 303.359 808.64L303.089 809.25C302.989 809.46 302.899 809.66 302.809 809.87C302.719 810.08 302.619 810.27 302.529 810.48L302.259 811.09C302.159 811.29 302.069 811.5 301.979 811.7C301.889 811.9 301.789 812.11 301.699 812.32C299.984 815.974 299.102 819.963 299.119 824C299.119 840.1 313.019 853.26 330.209 853.26C347.029 853.26 361.659 840.1 361.659 824C361.656 820.93 361.118 817.885 360.069 815C359.999 814.71 359.929 814.5 359.849 814.29Z" fill="black"/>
<path d="M336.06 592.8C284.49 592.8 249.38 623.15 249.38 667.41V671.41C249.389 672.071 249.569 672.718 249.902 673.29C250.235 673.861 250.709 674.336 251.28 674.67C251.496 674.878 251.73 675.065 251.98 675.23C252.197 675.441 252.435 675.628 252.69 675.79C252.907 676.001 253.145 676.188 253.4 676.35C253.615 676.563 253.853 676.751 254.11 676.91C254.323 677.121 254.558 677.308 254.81 677.47C255.026 677.684 255.264 677.875 255.52 678.04C255.739 678.248 255.977 678.435 256.23 678.6C256.447 678.81 256.685 678.998 256.94 679.16C257.154 679.37 257.388 679.558 257.64 679.72C257.875 679.947 258.133 680.148 258.41 680.32C258.614 680.506 258.831 680.676 259.06 680.83C259.279 681.038 259.517 681.225 259.77 681.39C259.986 681.598 260.22 681.785 260.47 681.95C260.689 682.158 260.927 682.345 261.18 682.51C261.397 682.72 261.635 682.908 261.89 683.07C262.104 683.28 262.338 683.468 262.59 683.63C262.807 683.84 263.045 684.028 263.3 684.19C263.514 684.4 263.748 684.588 264 684.75C264.219 684.958 264.457 685.145 264.71 685.31C264.924 685.52 265.158 685.708 265.41 685.87C266.565 686.887 268.073 687.411 269.61 687.33L301.77 688.53C305.08 688.53 306.88 687.03 306.88 683.72V680.42C306.88 667.19 317.7 657.88 334.88 657.88C350.51 657.88 361.03 666.29 361.03 679.22C361.03 680.693 360.89 682.163 360.61 683.61C344.47 704.77 302.46 714.1 302.46 755.17V765.05C302.46 769.05 304.65 771.26 308.68 771.26H347.4C351.4 771.26 353.62 769.07 353.62 765.05V758.46C353.62 725.18 419.09 724.81 419.09 664.1C419.09 621.32 386.53 592.8 336.06 592.8Z" fill="black"/>
<path d="M302.41 765.07V755.19C302.41 704.35 366.78 702.19 366.78 665.95C366.78 650.22 353.98 639.95 334.96 639.95C314.11 639.95 300.96 651.29 300.96 667.38V671.38C300.96 675.38 298.76 677.24 294.74 677.24L255.6 675.77C251.95 675.77 249.39 673.94 249.39 671.38V667.38C249.39 623.12 284.5 592.77 336.07 592.77C386.54 592.77 419.07 621.29 419.07 664.09C419.07 724.8 353.6 725.17 353.6 758.45V765.04C353.6 769.04 351.4 771.25 347.38 771.25H308.63C304.6 771.28 302.41 769.09 302.41 765.07ZM299.12 824C299.12 807.91 313.38 794.74 330.57 794.74C347.03 794.74 361.66 807.91 361.66 824C361.66 840.09 347 853.21 330.21 853.21C313 853.21 299.12 840.05 299.12 824Z" fill="#4DF0CB" stroke="#4DF0CB" stroke-miterlimit="10"/>
<path d="M328.61 886C358.77 886 383.22 880.533 383.22 873.79C383.22 867.047 358.77 861.58 328.61 861.58C298.45 861.58 274 867.047 274 873.79C274 880.533 298.45 886 328.61 886Z" fill="black"/>
<path d="M286.87 596.85L284.78 601.41C284.78 601.41 272.64 602.72 272.64 603.63C272.64 604.54 272.77 610.81 273.43 611.07C273.931 611.265 274.488 611.265 274.99 611.07L292.87 606.5L294.57 598.41L286.87 596.85Z" fill="white" stroke="black" stroke-linecap="round" stroke-linejoin="round"/>
<path d="M283.47 605C281.25 606.819 278.855 608.413 276.32 609.76C273.43 611.06 273.32 613.03 274.24 613.03C275.16 613.03 283.32 609.61 283.32 609.61C283.32 609.61 290.73 607.67 291.8 607.08C292.87 606.49 292.99 603.21 292.99 603.21" fill="white"/>
<path d="M283.47 605C281.25 606.819 278.855 608.413 276.32 609.76C273.43 611.06 273.32 613.03 274.24 613.03C275.16 613.03 283.32 609.61 283.32 609.61C283.32 609.61 290.73 607.67 291.8 607.08C292.87 606.49 292.99 603.21 292.99 603.21" stroke="black" stroke-linecap="round" stroke-linejoin="round"/>
<path d="M297.549 509.23L290.089 566.41L284.899 597.37L296.419 600.09L305.009 563.47L309.079 540.42L297.549 509.23Z" fill="#7D7D7D" stroke="black" stroke-linecap="round" stroke-linejoin="round"/>
<path d="M357.75 467.83L353.2 467.11L343.88 463.58L343.54 474.65L357.99 475.98L357.75 467.83Z" fill="white" stroke="black" stroke-linecap="round" stroke-linejoin="round"/>
<path d="M304.56 670.6C301.169 674.554 298 678.694 295.07 683C291.22 688.88 292.58 695.2 297.33 696.79C302.08 698.38 308.17 694.07 309.76 690.68C311.35 687.29 310.89 685.49 313.37 682.1C315.85 678.71 317.89 675.32 316.99 670.8C316.09 666.28 307 667.44 304.56 670.6Z" fill="#7D7D7D" stroke="black" stroke-linecap="round" stroke-linejoin="round"/>
<path d="M309.3 691.53C308.98 690.85 308.61 690.13 308.17 689.36C304.54 682.97 298.17 683.48 294.17 684.67C291.54 690.04 293.04 695.38 297.35 696.82C301.66 698.26 307.22 694.74 309.3 691.53Z" fill="white" stroke="black" stroke-linecap="round" stroke-linejoin="round"/>
<path d="M308.17 689.36C306.82 691.36 305.01 696.82 298 694.56C296.045 694.058 294.297 692.957 293 691.41C293.152 692.63 293.641 693.782 294.413 694.738C295.185 695.694 296.21 696.415 297.37 696.82C302.11 698.4 308.21 694.1 309.8 690.71C311.39 687.32 310.93 685.52 313.41 682.13C315.89 678.74 317.93 675.35 317.03 670.83C317.03 676.25 315.03 677.15 312.51 680.09C309.99 683.03 309.53 687.32 308.17 689.36Z" fill="white" stroke="black" stroke-linecap="round" stroke-linejoin="round"/>
<path d="M371.25 670.6C374.641 674.554 377.809 678.694 380.74 683C384.59 688.88 383.23 695.2 378.48 696.79C373.73 698.38 367.64 694.07 366.05 690.68C364.46 687.29 364.92 685.49 362.44 682.1C359.96 678.71 357.92 675.32 358.82 670.8C359.72 666.28 368.77 667.44 371.25 670.6Z" fill="#7D7D7D" stroke="black" stroke-linecap="round" stroke-linejoin="round"/>
<path d="M366.52 691.53C366.83 690.85 367.2 690.13 367.64 689.36C371.27 682.97 377.64 683.48 381.64 684.67C384.27 690.04 382.77 695.38 378.46 696.82C374.15 698.26 368.59 694.74 366.52 691.53Z" fill="white" stroke="black" stroke-linecap="round" stroke-linejoin="round"/>
<path d="M367.64 689.36C368.99 691.36 370.8 696.82 377.81 694.56C379.765 694.058 381.513 692.957 382.81 691.41C382.659 692.63 382.169 693.782 381.397 694.738C380.625 695.694 379.6 696.415 378.44 696.82C373.7 698.4 367.6 694.1 366.01 690.71C364.42 687.32 364.88 685.52 362.4 682.13C359.92 678.74 357.88 675.35 358.78 670.83C358.78 676.25 360.78 677.15 363.3 680.09C365.82 683.03 366.28 687.32 367.64 689.36Z" fill="white" stroke="black" stroke-linecap="round" stroke-linejoin="round"/>
<path d="M381.85 592.63C381.85 588.56 374.85 584.04 374.85 584.04C364.3 573.31 345.26 574.73 338.23 575.69C331.23 574.69 312.17 573.31 301.62 584.04C301.62 584.04 294.62 588.56 294.62 592.63C294.62 596.7 303.44 670.15 303.44 670.15C303.44 670.15 303.21 673.99 309.54 674.44C315.87 674.89 318.54 671.28 318.54 671.28L321.03 609.13C321.03 609.13 331.2 601.89 333.03 601.67C333.69 601.58 334.55 601.44 335.51 601.32V601.44C337.301 601.067 339.149 601.067 340.94 601.44V601.32C341.94 601.44 342.75 601.58 343.42 601.67C345.23 601.89 355.42 609.13 355.42 609.13L357.91 671.28C357.91 671.28 360.62 674.89 366.91 674.44C373.2 673.99 373.01 670.15 373.01 670.15C373.01 670.15 381.85 596.7 381.85 592.63Z" fill="black" stroke="black" stroke-linecap="round" stroke-linejoin="round"/>
<path d="M355.41 609.13C355.41 609.13 354.05 594.21 360.61 588.56" stroke="#707070" stroke-linecap="round" stroke-linejoin="round"/>
<path d="M321.06 609.13C321.06 609.13 321.74 596.7 320.38 592.18C319.02 587.66 316.76 585.85 316.76 585.85" stroke="#707070" stroke-linecap="round" stroke-linejoin="round"/>
<path d="M329.42 579.52C329.42 579.52 336.65 587.88 338.01 594.89" stroke="#707070" stroke-linecap="round" stroke-linejoin="round"/>
<path d="M345.24 580C345.24 580 341.17 584.52 340.72 587.91" stroke="#707070" stroke-linecap="round" stroke-linejoin="round"/>
<path d="M335.07 492.06C335.07 492.06 328.52 491.15 326.26 493.41C324 495.67 316.31 504 316.31 504L320.38 575.87C320.38 575.87 329.65 579.49 337.56 579.49C345.47 579.49 354.51 576.55 356.56 574.97C358.61 573.39 356.79 496.32 356.79 496.32C356.79 496.32 340 491.38 335.07 492.06Z" fill="#4DF0CB" stroke="black" stroke-linecap="round" stroke-linejoin="round"/>
<path d="M347.05 493.64C350.49 493.118 353.961 492.814 357.44 492.73C361.96 492.73 366.44 492.96 366.44 492.96L377.74 482.11L355 476.91L356.81 466.52C356.81 466.52 373.53 465.39 381.89 466.97C390.25 468.55 403.36 472.62 404.04 472.62C404.72 472.62 405.62 475.11 404.94 476.91C404.26 478.71 383 502.23 376.65 508.33C372.496 512.401 368.573 516.701 364.9 521.21L362 571.61C362 571.61 369.46 575.68 370.82 577.03C372.18 578.38 373.76 583.81 373.76 583.81C373.76 583.81 359.97 578.16 356.35 577.71C352.73 577.26 350.48 577.03 349.8 575.71C349.12 574.39 343.47 514.01 343.47 514.01L343.7 494.8C343.7 494.8 343.66 493.64 347.05 493.64Z" fill="#7D7D7D" stroke="black" stroke-linecap="round" stroke-linejoin="round"/>
<path d="M360.609 524.6L348.399 526.18L349.529 530.7L355.639 532.28L361.509 529.57L360.609 524.6Z" stroke="black" stroke-linecap="round" stroke-linejoin="round"/>
<path d="M367.609 497.48L364.899 521.21L371.909 501.1" stroke="black" stroke-linecap="round" stroke-linejoin="round"/>
<path d="M377.779 482.11C377.779 482.11 383.429 483.24 392.019 479.85" stroke="black" stroke-linecap="round" stroke-linejoin="round"/>
<path d="M383.659 483.69C387.371 483.793 391.083 483.492 394.729 482.79" stroke="black" stroke-linecap="round" stroke-linejoin="round"/>
<path d="M327.39 491.83L328.52 508.33C329.55 509.685 330.884 510.779 332.414 511.524C333.944 512.269 335.628 512.645 337.33 512.62C342.98 512.4 343.66 508.33 343.66 508.33V494.77L327.39 491.83Z" fill="white" stroke="black" stroke-linecap="round" stroke-linejoin="round"/>
<path d="M343.88 500.42L343.43 514L348.18 506.54C348.18 506.54 353.38 513.09 354.73 512.87C356.08 512.65 353.83 509.93 353.38 507.45C352.93 504.97 349.08 496.14 348.63 493.66C348.18 491.18 343.88 490.72 343.63 491.85C343.504 492.826 343.504 493.814 343.63 494.79L343.88 500.42Z" fill="#7D7D7D" stroke="black" stroke-linecap="round" stroke-linejoin="round"/>
<path d="M328.29 512.62C328.29 512.62 329.19 575.9 326.93 576.62C324.67 577.34 315.63 577.53 309.93 580.24C304.23 582.95 301.57 584.08 301.57 584.08C301.57 584.08 304.28 577.53 307.45 574.59C309.557 572.696 311.912 571.098 314.45 569.84L308.58 539.56C308.58 539.56 297.73 510.85 297.5 509.27C297.27 507.69 318.07 495.94 322.36 493.9C326.65 491.86 327.79 493.68 327.79 493.68L328.29 512.62Z" fill="#7D7D7D" stroke="black" stroke-linecap="round" stroke-linejoin="round"/>
<path d="M322.639 490.7C322.639 490.7 317.219 507.88 316.759 510.14C316.299 512.4 316.759 512.4 318.349 510.81C319.939 509.22 323.999 505.39 323.999 505.39L328.289 512.62L328.059 499.29V491.6C328.059 491.6 327.839 488.44 322.639 490.7Z" fill="#7D7D7D" stroke="black" stroke-linecap="round" stroke-linejoin="round"/>
<path d="M312.02 527.77H325.35L325.13 533.19L319.25 535.22L311.79 533.19L312.02 527.77Z" stroke="black" stroke-linecap="round" stroke-linejoin="round"/>
<path d="M348.629 468.33C348.629 468.33 351.789 482.11 352.469 484.33C353.149 486.55 348.859 495.41 347.469 497.44C346.94 498.32 346.213 499.065 345.344 499.613C344.476 500.162 343.492 500.5 342.469 500.6C340.889 500.6 332.299 497.67 330.259 496.31C328.219 494.95 326.199 493.37 326.199 493.37C325.238 493.808 324.17 493.957 323.125 493.797C322.081 493.637 321.106 493.176 320.319 492.47C317.609 489.98 313.989 487.04 314.889 485.01C315.328 484.014 316.062 483.176 316.992 482.611C317.922 482.046 319.003 481.78 320.089 481.85C322.579 481.85 321.679 481.62 321.679 481.62C321.679 481.62 317.159 475.07 317.159 469.87C317.159 464.67 326.869 460.87 332.519 460.87C336.426 461.033 340.264 461.953 343.819 463.58L348.629 468.33Z" fill="white" stroke="black" stroke-linecap="round" stroke-linejoin="round"/>
<path d="M340.719 473.52L344.789 481.21L340.719 483.92L338.909 481.66" stroke="black" stroke-linecap="round" stroke-linejoin="round"/>
<path d="M348.179 480.53C348.179 480.53 348.399 482.34 345.689 485.28" stroke="black" stroke-linecap="round" stroke-linejoin="round"/>
<path d="M336.43 476.35C336.43 477.41 335.97 478.27 335.43 478.27C334.89 478.27 334.43 477.41 334.43 476.35C334.43 475.29 334.89 474.43 335.43 474.43C335.97 474.43 336.43 475.29 336.43 476.35Z" fill="black"/>
<path d="M343.54 474.65C344.103 474.65 344.56 473.79 344.56 472.73C344.56 471.67 344.103 470.81 343.54 470.81C342.976 470.81 342.52 471.67 342.52 472.73C342.52 473.79 342.976 474.65 343.54 474.65Z" fill="black"/>
<path d="M324.22 456.57C324.22 456.57 310 461.77 309.53 468.33C309.06 474.89 322.19 483.92 322.87 485.05C323.55 486.18 325.58 483.69 325.58 483.69C325.128 483.083 324.813 482.385 324.656 481.645C324.498 480.904 324.503 480.138 324.67 479.4C325.35 477.14 328.29 474.4 328.29 473.3C328.29 472.2 324.9 474.2 324.9 470.81C324.9 467.42 333.26 465.39 338.23 465.61C343.2 465.83 347.5 474.2 351.12 470.13C354.74 466.06 349.53 464.94 349.53 464.94C349.53 464.94 356.53 464.03 356.53 460.42C356.53 456.81 352.91 454.31 351.33 454.31C349.75 454.31 345.46 457.03 345.46 454.09C345.46 451.15 349.75 449.79 345.68 445.09C341.61 440.39 336.42 445.09 336.42 446.9C336.42 448.71 335.06 452.09 334.16 452.09C333.26 452.09 330.54 448.03 327.38 450.29C326.43 451.045 325.655 451.998 325.11 453.083C324.564 454.167 324.26 455.357 324.22 456.57V456.57Z" fill="black" stroke="black" stroke-linecap="round" stroke-linejoin="round"/>
<path d="M330.1 473.98L337.33 471.26" stroke="black" stroke-linecap="round" stroke-linejoin="round"/>
<path d="M338.46 468.1C338.322 467.391 338.435 466.655 338.78 466.02" stroke="black" stroke-linecap="round" stroke-linejoin="round"/>
<path d="M338.779 466C339.289 465 340.439 463.71 342.979 462.66" stroke="white" stroke-linecap="round" stroke-linejoin="round"/>
</svg>
